<?xml version="1.0" standalone="no"?>
<!DOCTYPE svg PUBLIC "-//W3C//DTD SVG 1.1//EN" "http://www.w3.org/Graphics/SVG/1.1/DTD/svg11.dtd" >
<!--
2013-9-30: Created.
-->
<svg>
<metadata>
Created by iconfont
</metadata>
<defs>

<font id="iconfont" horiz-adv-x="1024" >
  <font-face
    font-family="iconfont"
    font-weight="500"
    font-stretch="normal"
    units-per-em="1024"
    ascent="896"
    descent="-128"
  />
    <missing-glyph />
    
    <glyph glyph-name="x" unicode="x" horiz-adv-x="1001"
d="M281 543q-27 -1 -53 -1h-83q-18 0 -36.5 -6t-32.5 -18.5t-23 -32t-9 -45.5v-76h912v41q0 16 -0.5 30t-0.5 18q0 13 -5 29t-17 29.5t-31.5 22.5t-49.5 9h-133v-97h-438v97zM955 310v-52q0 -23 0.5 -52t0.5 -58t-10.5 -47.5t-26 -30t-33 -16t-31.5 -4.5q-14 -1 -29.5 -0.5
t-29.5 0.5h-32l-45 128h-439l-44 -128h-29h-34q-20 0 -45 1q-25 0 -41 9.5t-25.5 23t-13.5 29.5t-4 30v167h911zM163 247q-12 0 -21 -8.5t-9 -21.5t9 -21.5t21 -8.5q13 0 22 8.5t9 21.5t-9 21.5t-22 8.5zM316 123q-8 -26 -14 -48q-5 -19 -10.5 -37t-7.5 -25t-3 -15t1 -14.5
t9.5 -10.5t21.5 -4h37h67h81h80h64h36q23 0 34 12t2 38q-5 13 -9.5 30.5t-9.5 34.5q-5 19 -11 39h-368zM336 498v228q0 11 2.5 23t10 21.5t20.5 15.5t34 6h188q31 0 51.5 -14.5t20.5 -52.5v-227h-327z" />
    

    
    <glyph glyph-name="vehicle-5" unicode="&#58934;" d="M600.77 60.855l292.969 292.969c22.881 22.881 22.881 59.971 0 82.852l-292.969 292.969c-22.881 22.881-59.971 22.881-82.852 0s-22.881-59.971 0-82.852l192.95-192.95-561.68 0c-32.373 0-58.594-26.221-58.594-58.594s26.221-58.594 58.594-58.594l561.68 0-192.95-192.95c-11.426-11.426-17.168-26.426-17.168-41.426s5.713-30 17.168-41.426c22.881-22.881 59.971-22.881 82.852 0z"  horiz-adv-x="1000" />

    
    <glyph glyph-name="daohangxianlu" unicode="&#58986;" d="M860.475392 156.400384 860.475392 447.627008c0 107.220992-89.137152 194.141184-199.099392 194.141184-109.963264 0-199.130112-86.921216-199.130112-194.141184l0-291.226624c0-53.610496-44.566528-97.040384-99.547136-97.040384-54.996992 0-99.564544 43.428864-99.564544 97.040384L263.134208 447.627008l99.564544 0L213.357568 690.303744 64.019456 447.627008l99.550208 0 0-291.226624c0-107.219968 89.152512-194.141184 199.129088-194.141184 109.960192 0 199.099392 86.921216 199.099392 194.141184L561.798144 447.627008c0 53.610496 44.596224 97.07008 99.57888 97.07008 54.979584 0 99.550208-43.460608 99.550208-97.07008l0-291.226624-99.550208 0L810.714112-86.275328l149.339136 242.675712L860.475392 156.400384z"  horiz-adv-x="1024" />

    
    <glyph glyph-name="yuanshixin" unicode="&#58957;" d="M511.998977 658.495884c-197.663872 0-358.49486-160.830989-358.49486-358.496907 0-197.663872 160.830989-358.49486 358.49486-358.49486 197.665919 0 358.496907 160.830989 358.496907 358.49486C870.495884 497.664895 709.664895 658.495884 511.998977 658.495884z"  horiz-adv-x="1024" />

    
    <glyph glyph-name="hb-search" unicode="&#58977;" d="M976.948-50.889l-227.415 227.415c28.917 32.756 52.169 69.646 69.237 109.999 21.117 49.925 31.824 102.944 31.824 157.582s-10.707 107.658-31.824 157.582c-20.39 48.209-49.575 91.499-86.746 128.668s-80.461 66.355-128.668 86.746c-49.925 21.117-102.943 31.824-157.582 31.824-54.639 0-107.658-10.707-157.582-31.824-48.208-20.39-91.499-49.576-128.668-86.746-37.17-37.17-66.355-80.459-86.746-128.668-21.117-49.924-31.824-102.943-31.824-157.582s10.707-107.657 31.824-157.582c20.39-48.208 49.576-91.499 86.746-128.668 37.17-37.17 80.461-66.356 128.668-86.747 49.925-21.117 102.944-31.824 157.582-31.824 54.639 0 107.658 10.707 157.583 31.824 40.352 17.068 77.242 40.32 109.998 69.237l227.415-227.415c4.996-4.996 11.542-7.493 18.090-7.493s13.094 2.497 18.090 7.493c9.988 9.992 9.988 26.189-0.002 36.179zM445.774 90.453c-94.464 0-183.275 36.787-250.071 103.584-66.796 66.795-103.583 155.606-103.583 250.071 0 94.464 36.787 183.275 103.583 250.071 66.796 66.796 155.607 103.583 250.071 103.583s183.275-36.787 250.071-103.583c66.796-66.796 103.583-155.607 103.583-250.071 0-92.641-35.4-179.83-99.768-246.163-1.516-0.974-2.953-2.118-4.278-3.444-1.325-1.325-2.469-2.763-3.443-4.277-66.336-64.369-153.525-99.77-246.164-99.77z"  horiz-adv-x="1024" />

    
    <glyph glyph-name="jiahao" unicode="&#58888;" d="M896 416h-352v352h-64v-352h-352v-64h352v-352h64v352h352z"  horiz-adv-x="1024" />

    
    <glyph glyph-name="iconfonttishi" unicode="&#58987;" d="M512.697383 747.53171c-246.974951 0-447.184809-200.192462-447.184809-447.184809 0-246.957555 200.209858-447.184809 447.184809-447.184809s447.184809 200.227254 447.184809 447.184809C959.882192 547.339248 759.671311 747.53171 512.697383 747.53171zM513.837346 550.795976c31.123858 0 56.344263-25.219381 56.344263-56.335053 0-31.115672-25.220405-56.371892-56.344263-56.371892-31.115672 0-56.353472 25.25622-56.353472 56.371892C457.483874 525.576595 482.721675 550.795976 513.837346 550.795976zM562.856783 57.793656l-39.676651 0c-20.74344 0-42.260499 18.051121-42.260499 34.5724L480.919632 320.726044l-14.08274 0c-20.74344 0-37.564547 16.813944-37.564547 37.556361 0 20.74344 16.821107 37.556361 37.564547 37.556361 0 0 45.817512 0.10847 47.000454 0 19.049868-1.419326 32.861432-9.752108 32.861432-25.25622l0-237.676168 16.158005 0c20.74344 0 37.556361-16.812921 37.556361-37.556361C600.413144 74.570761 583.600223 57.793656 562.856783 57.793656z"  horiz-adv-x="1024" />

    
    <glyph glyph-name="set" unicode="&#58983;" d="M1020.2 357.8c-4 22.2-25.4 44.8-47.6 49.8l-16.6 3.8c-39 11.8-73.6 37.6-95.6 75.6-22 38.2-27.2 81.6-17.6 121.4v0l5.2 15.6c6.6 21.6-2 51.4-19.4 66.2 0 0-15.6 13.2-59.6 38.6-44 25.2-63 32.2-63 32.2-21.4 7.8-51.4 0.4-67-16.2l-11.6-12.4c-29.6-28-69.4-45-113.4-45s-84.2 17.2-113.8 45.4l-11.2 12c-15.4 16.6-45.6 24-67 16.2 0 0-19.2-7-63.2-32.2-44-25.6-59.4-38.8-59.4-38.8-17.4-14.6-26-44.2-19.4-66l4.8-15.8c9.4-39.8 4.4-83-17.6-121.2-22-38.2-57-64.2-96.2-75.8l-16-3.6c-22-5-43.6-27.4-47.6-49.8 0 0-3.6-20-3.6-70.8 0-50.8 3.6-70.8 3.6-70.8 4-22.4 25.4-44.8 47.6-49.8l15.6-3.6c39.2-11.6 74.4-37.6 96.4-76 22-38.2 27.2-81.6 17.6-121.4v0l-4.6-15.4c-6.6-21.6 2-51.4 19.4-66.2 0 0 15.6-13.2 59.6-38.6 44-25.4 63-32.2 63-32.2 21.4-7.8 51.4-0.4 67 16.2l11 11.8c29.8 28.2 69.8 45.4 114 45.4s84.4-17.4 114-45.6v0l11-11.8c15.4-16.6 45.6-24 67-16.2 0 0 19.2 7 63.2 32.2 44 25.4 59.4 38.6 59.4 38.6 17.4 14.6 26 44.4 19.4 66.2l-4.8 16c-9.4 39.6-4.4 82.8 17.6 120.8 22 38.2 57.2 64.4 96.4 76v0l15.6 3.6c22 5 43.6 27.4 47.6 49.8 0 0 3.6 20 3.6 70.8-0.2 51-3.8 71-3.8 71v0zM514 83.6c-112.2 0-203.4 91-203.4 203.4 0 112.2 91 203.2 203.4 203.2 112.2 0 203.4-91 203.4-203.4-0.2-112.2-91.2-203.2-203.4-203.2v0zM514 83.6z"  horiz-adv-x="1024" />

    
    <glyph glyph-name="round-on" unicode="&#58937;" d="M511.866 832.056c-247.171 0-447.581-200.371-447.581-447.542 0-247.211 200.409-447.583 447.581-447.583s447.543 200.371 447.543 447.583c0.001 247.17-200.371 447.542-447.543 447.542zM758.045 507.511l-266.203-266.203c-0.029-0.029-0.021-0.085-0.051-0.114l-1.32-1.258-17.067-17.067c-1.827-1.827-3.749-3.354-5.664-4.591l-2.13-2.029c-1.302-1.24-3.362-1.365-5.641-1.012-2.397-0.362-4.551-0.208-5.869 1.11l-2.36 2.36c-1.799 1.256-3.602 2.776-5.308 4.566l-14.953 15.694-2.95 2.95c-0.065 0.065-0.049 0.192-0.111 0.262l-163.172 171.269c-6.95 7.295-9.668 16.010-6.051 19.456l26.181 24.943c3.617 3.446 12.19 0.312 19.141-6.984l156.211-163.96 258.961 258.961c7.164 7.164 15.81 10.090 19.344 6.557l25.57-25.57c3.532-3.532 0.605-12.177-6.559-19.342z"  horiz-adv-x="1024" />

    
    <glyph glyph-name="close" unicode="&#58930;" d="M571.37 385.41l348.24 346.71c16.47 16.41 16.56 42.96 0.18 59.46-16.41 16.53-42.93 16.56-59.4 0.18l-348.36-346.77-345.3 346.62c-16.32 16.41-42.93 16.47-59.37 0.09-16.44-16.41-16.47-43.02-0.09-59.49l345.21-346.53-348.09-346.5c-16.47-16.41-16.56-42.96-0.18-59.46 8.19-8.25 18.99-12.39 29.79-12.39 10.71 0 21.42 4.08 29.61 12.24l348.15 346.59 348.45-349.77c8.22-8.28 18.99-12.39 29.76-12.39 10.74 0 21.48 4.11 29.67 12.27 16.41 16.41 16.47 42.96 0.09 59.43l-348.36 349.71zM571.37 385.41z"  horiz-adv-x="1024" />

    
    <glyph glyph-name="jiesong" unicode="&#58993;" d="M986.684 312.416c0-27.207-21.729-49.239-48.469-49.239h-1.392l-18.291-315.985c0-27.208-7.938-49.239-34.66-49.239h-68.643c-26.783 0-37.994 22.053-37.994 49.239l-18.311 315.985h-9.985c-26.783 0-48.45 22.053-48.45 49.239l-20.193 300.273c0 27.207 21.707 49.238 48.469 49.238h225.367c26.782 0 48.47-22.052 48.47-49.238l-15.919-300.273zM847.822 685.165c-53.135 0-96.203 43.752-96.203 97.728 0 53.998 43.068 97.75 96.203 97.75 53.135 0 96.224-43.752 96.224-97.75 0-53.977-43.11-97.728-96.224-97.728v0zM680.254 67.513c0-46.848-37.401-42.421-83.558-42.421v-49.072c0-27.852-27.417-50.382-54.833-50.382-27.396 0-49.595 22.53-49.595 50.382v49.072h-289.816v-51.711c0-26.397-30.179-46.433-56.122-46.433-25.964 0-50.904 20.057-50.904 46.433v51.711c-46.158 0-74.945-4.427-74.945 42.421v183.007c0 46.204 28.031 113.338 73.042 115.209l57.963 128.011c23.079 46.578 66.045 83.034 112.203 83.034h172.642c46.117 0 99.026-36.664 121.226-84.884l50.106-127.304c40.962-8.938 72.592-65.638 72.592-108.744v-188.329zM96.734 240.606c0-34.793 27.724-62.997 62.015-62.997 34.229 0 61.994 28.204 61.994 62.997 0 34.793-27.765 62.956-61.994 62.956-34.271 0-62.015-28.163-62.015-62.956v0zM403.389 523.275l-108.622-0.728c-107.252-18.311-118.75-118.097-118.259-150.479l357.232-0.125c0.020 27.997-6.875 133.623-130.351 151.332v0zM541.228 303.562c-34.25 0-62.014-28.163-62.014-62.956s27.764-62.997 62.014-62.997c34.25 0 61.994 28.204 61.994 62.997 0 34.793-27.744 62.956-61.994 62.956v0z"  horiz-adv-x="1024" />

    
    <glyph glyph-name="money" unicode="&#58886;" d="M511.768 863.767c-264.968 0-479.767-214.799-479.767-479.767s214.798-479.767 479.767-479.767c264.968 0 479.767 214.798 479.767 479.767s-214.799 479.767-479.767 479.767zM724.828 415.995l0-50.296-179.24 0 0-79.539 179.24 0 0-50.297-179.24 0 0-166.433-65.827 0 0 166.434-178.315 0 0 50.297 178.315 0 0 79.539-178.315 0 0 50.296 145.387 0-169.162 282.575 73.147 0 162.768-277.089 160.949 277.089 71.331 0-167.346-282.576 146.31 0z"  horiz-adv-x="1026" />

    
    <glyph glyph-name="shuju" unicode="&#58994;" d="M349.59 40.875v491.633c0 19.605-15.48 34.685-34.049 34.685h-102.153c-18.568 0-34.049-16.586-34.049-34.685v-491.633h170.249zM566.273 40.875v702.76c0 19.607-15.476 36.197-34.050 36.197h-102.153c-18.568 0-34.049-16.59-34.049-36.197v-702.76h170.251zM782.952 40.875v310.664c0 19.605-15.474 36.19-34.049 36.19h-102.146c-18.574 0-34.056-16.586-34.056-36.19v-310.664h170.251zM999.632 40.875v491.633c0 19.605-15.474 34.685-34.049 34.685h-102.146c-18.574 0-34.049-16.586-34.049-34.685v-491.633h170.244zM1030.588-4.366h-897.678v799.278c0 16.59-13.934 30.161-30.956 30.161-17.026 0-30.954-13.571-30.954-30.161v-859.601h959.588c17.028 0 30.954 13.571 30.954 30.161 0 16.592-13.927 30.163-30.954 30.163v0z"  horiz-adv-x="1147" />

    
    <glyph glyph-name="lishi-copy" unicode="&#58891;" d="M511.702 860.502c-160.052 0-301.428-78.672-387.994-199.213v80.186c0 24.653-20.044 44.635-44.768 44.635s-44.768-19.983-44.768-44.635v-178.54c0-24.647 20.044-44.635 44.768-44.635h193.995c24.724 0 44.768 19.987 44.768 44.635 0 24.653-20.044 44.635-44.768 44.635h-77.872c70.236 98.973 185.782 163.661 316.64 163.661 214.276 0 387.988-173.194 387.988-386.837 0-213.639-173.712-386.837-387.988-386.837-180.606 0-331.942 123.212-375.191 289.797l-0.777-0.242c-6.032 17.535-22.235 30.333-41.873 30.333-24.724 0-44.768-19.983-44.768-44.63 0-4.399 1.324-8.384 2.51-12.394l-0.466-0.147c0.294-1.081 0.833-2.048 1.133-3.123 0.329-0.867 0.548-1.733 0.929-2.576 56.804-199.646 240.059-346.287 458.506-346.287 263.73 0 477.525 213.163 477.525 476.107-0.002 262.949-213.798 476.108-477.529 476.108zM511.702 659.648c-24.724 0-44.768-19.983-44.768-44.635v-267.81c0-24.653 20.044-44.635 44.768-44.635 0 0 0 0 0.004 0h193.99c24.724 0 44.768 19.983 44.768 44.63 0 24.657-20.044 44.635-44.768 44.635h-149.226v223.18c0 24.653-20.045 44.635-44.769 44.635z"  horiz-adv-x="1024" />

    
    <glyph glyph-name="daifukuan" unicode="&#58997;" d="M558.616 202.833c0 126.495 102.534 229.029 229.029 229.029 39.286 0 76.262-9.852 108.615-27.367 0 30.043 0 60.085 0 90.128 0 23.839-14.96 38.313-30.286 51.936-17.88 15.933-39.286 24.448-62.883 24.569-52.422 0.243-104.845 0.122-158.727 0.122 0-14.109 0.487-28.096-0.122-41.962-2.189-56.193-27.488-97.425-76.262-121.265-14.231-6.933-30.894-10.825-46.584-11.433-33.57-1.095-67.504-2.311-100.588 2.311-56.801 8.028-101.196 63.004-103.628 122.724-0.608 16.055-0.122 32.11-0.122 48.652-3.527 0.487-5.717 1.095-7.906 1.095-65.193-0.122-130.509 0.973-195.702-0.851-38.8-1.095-67.626-22.745-86.6-58.017-2.554-4.865-2.797-11.433-2.919-17.271-0.122-119.927-0.851-239.854 0.487-359.78 0.73-58.869 42.814-106.061 98.52-116.156 1.581-0.243 3.041-1.216 4.5-1.946h525.44c-57.044 41.841-94.263 109.345-94.263 185.485zM748.48 494.987c3.771 1.581 8.636 0.365 11.312 0.365 19.096 0.851 34.664-4.379 48.53-15.447 5.108-4.135 7.906-9.122 3.771-15.204-4.014-6.081-9.609-6.081-14.839-1.703-12.041 9.974-25.785 12.649-40.624 11.92-3.041-0.122-6.811-0.973-8.879 0.608-3.527 2.797-7.784 6.933-8.149 10.825-0.122 2.676 5.23 7.176 8.879 8.636zM650.568 486.351c0.243 3.284 5.108 7.663 8.757 8.757 4.865 1.46 10.582 0.365 15.933 0.365v-0.122c4.987 0 10.339 1.095 14.96-0.365 3.406-1.095 8.028-5.595 7.906-8.514-0.122-3.649-4.135-10.095-6.933-10.339-11.19-1.216-22.623-1.216-33.813 0-2.797 0.243-7.176 6.811-6.811 10.217zM102.748 424.685c7.541 0.243 10.339-5.352 10.46-12.528 0-18.853 0.122-37.827 0-56.679 0-7.176-2.797-12.649-10.582-12.163-7.176 0.365-9.244 5.717-9.244 12.528 0 9.487 0 18.853 0 28.34 0 9.487 0 18.853 0 28.34-0.243 6.811 2.554 12.041 9.365 12.163zM112.965 137.153c-0.487-6.325-3.892-11.555-10.217-9.974-3.771 0.973-8.636 6.081-9.122 9.73-1.338 9.974-1.216 20.312 0 30.164 0.487 3.771 5.23 9.001 8.879 9.974 6.203 1.703 9.73-3.406 10.339-9.73 0.487-4.865 0.122-9.73 0.122-14.596 0.122-5.108 0.487-10.339 0-15.569zM113.087 231.659c0-6.69-2.676-11.92-9.852-12.041-7.906 0-9.974 5.717-9.974 12.771 0 9.487 0 18.853 0 28.34 0 9.487 0 18.853 0 28.34 0 6.811 2.797 12.041 9.73 12.041 6.933 0.122 10.095-5.108 10.095-11.798 0.122-19.217 0.122-38.435 0-57.652zM179.74 475.526c-3.527-1.824-8.514-0.73-12.893-0.608-12.771 0.243-24.569-2.797-34.786-11.068-5.352-4.379-11.19-5.96-15.812 0.608-5.108 7.176-0.73 12.285 4.865 16.542 13.744 10.703 29.191 15.447 46.219 14.596 4.014 0 8.514 1.216 11.92-0.365 3.892-1.824 9.365-6.081 9.365-9.487-0.122-3.527-5.108-8.392-8.879-10.217zM269.624 475.648c-4.865-1.703-10.582-0.365-15.933-0.365 0 0 0-0.122 0-0.122-4.987 0-10.46-1.338-14.96 0.365-3.892 1.581-9.001 6.446-9.001 9.974 0 3.284 5.473 9.001 9.122 9.487 9.852 1.338 20.191 1.338 30.043 0 3.527-0.487 8.392-5.96 9.001-9.852 0.365-2.797-4.744-8.271-8.271-9.487zM145.197 613.211c63.247-0.122 126.373 0 189.621 0h11.676c0-22.258-0.851-43.3 0.243-64.22 0.851-15.933 2.676-32.11 6.69-47.557 10.825-41.111 46.706-71.397 87.33-73.951 22.501-1.46 45.003 0 67.504-0.851 62.518-2.311 102.899 51.571 105.696 106.548 1.216 22.745 0.365 45.611 0.487 68.356 0 3.771 0 7.419 0 11.798h12.528c44.76 0 89.398 0.122 134.158 0 28.826-0.122 57.896 2.433 86.722-9.001-0.365 6.203-0.243 11.068-0.973 15.812-8.149 58.261-51.328 97.425-108.372 97.79-39.043 0.365-77.965 0.122-117.008 0-5.473 0-8.757 0.973-11.676 6.933-6.933 14.474-18.731 22.988-34.664 22.988-63.247 0.243-126.373 0.243-189.621 0-15.082 0-26.759-7.784-33.448-21.407-3.649-7.541-7.906-8.636-14.839-8.514-51.814 0.243-103.507 0.122-155.321 0.122-37.097 0-67.261-14.96-89.398-46.098-13.866-19.461-21.285-41.476-19.826-67.383 24.204 9.244 48.287 8.636 72.491 8.636zM480.652 660.89c38.313 0 70.667-33.691 70.667-73.708 0-40.381-31.867-73.464-70.667-73.343-38.921 0-70.545 32.962-70.545 73.464 0 40.138 31.989 73.586 70.545 73.586zM796.037 407.17c-112.872 0-204.338-91.465-204.338-204.338s91.465-204.338 204.338-204.338 204.338 91.465 204.338 204.338-91.465 204.338-204.338 204.338zM914.626 186.413h-118.589c-8.514 0-15.447 6.933-15.447 15.447v142.915c0 8.514 6.933 15.447 15.447 15.447s15.447-6.933 15.447-15.447v-127.468h103.142c8.514 0 15.447-6.933 15.447-15.447s-6.933-15.447-15.447-15.447z"  horiz-adv-x="1024" />

    
    <glyph glyph-name="qita" unicode="&#58995;" d="M936.026 478.158c0-13.636-11.055-24.69-24.69-24.69h-325.090c-13.635 0-24.69 11.054-24.69 24.69v325.092c0 13.635 11.055 24.69 24.69 24.69h325.090c13.635 0 24.69-11.055 24.69-24.69v-325.092zM936.026 16.927c0-13.636-11.055-24.691-24.69-24.691h-325.090c-13.635 0-24.69 11.055-24.69 24.691v325.090c0 13.636 11.055 24.69 24.69 24.69h325.090c13.635 0 24.69-11.054 24.69-24.69v-325.090zM497.257 16.927c0-13.636-11.056-24.691-24.689-24.691h-325.092c-13.636 0-24.692 11.055-24.692 24.691v325.090c0 13.636 11.056 24.69 24.692 24.69h325.092c13.633 0 24.689-11.054 24.689-24.69v-325.090zM117.641 640.704c0-106.247 86.131-192.38 192.38-192.38s192.38 86.131 192.38 192.38c0 106.247-86.131 192.38-192.38 192.38-106.247 0-192.38-86.131-192.38-192.38z"  horiz-adv-x="1024" />

    
    <glyph glyph-name="mail-people" unicode="&#58908;" d="M635.983 283.797c-5.539 1.802-40.502 17.566-18.656 83.989h-0.303c56.945 58.641 100.47 153.060 100.47 245.983 0 142.901-95.035 217.781-205.459 217.781-110.495 0-204.984-74.88-204.984-217.781 0-93.299 43.286-188.091 100.572-246.595 22.322-58.574-17.603-80.318-25.959-83.377-115.658-41.823-251.327-118.064-251.327-193.32 0-20.318 0-8.020 0-28.201 0-102.536 198.797-125.846 382.784-125.846 184.257 0 380.543 23.31 380.543 125.846 0 20.183 0 7.884 0 28.201-0 77.532-136.349 153.16-257.68 193.32z"  horiz-adv-x="1024" />

    
    <glyph glyph-name="calendar" unicode="&#58926;" d="M327.68 588.096c22.272 0 41.664 18.112 41.664 40.384L369.344 812.16c0 22.336-19.392 40.448-41.664 40.448-22.336 0-40.384-18.112-40.384-40.448l0-183.68C287.36 606.208 305.408 588.096 327.68 588.096zM694.528 588.096c22.272 0 41.664 18.112 41.664 40.384L736.192 812.16c0 22.336-19.392 40.448-41.664 40.448-22.336 0-40.384-18.112-40.384-40.448l0-183.68C654.144 606.208 672.192 588.096 694.528 588.096zM409.472 750.848l204.416 0 0-61.056-204.416 0 0 61.056ZM853.056 750.848l-75.968 0 0-60.736 78.912 0c23.232 0 42.752-19.648 42.752-42.816l0-141.312L124.608 505.984 124.608 647.232c0 23.232 19.584 42.816 42.752 42.816l79.424 0L246.784 750.848 170.944 750.848C112.128 750.848 64 702.592 64 643.712l0-621.248c0-58.88 46.336-107.072 105.152-107.072l683.904 0c58.816 0 106.944 48.192 106.944 107.072L960 643.712C960 702.592 911.872 750.848 853.056 750.848zM285.696 37.376c-33.856 0-61.248 27.456-61.248 61.376 0 33.92 27.456 61.376 61.248 61.376 33.856 0 61.248-27.456 61.248-61.376C346.944 64.832 319.552 37.376 285.696 37.376zM286.784 261.824c-33.856 0-61.248 27.456-61.248 61.376 0 33.856 27.456 61.376 61.248 61.376 33.856 0 61.248-27.456 61.248-61.376C348.032 289.28 320.64 261.824 286.784 261.824zM511.168 37.376c-33.856 0-61.248 27.456-61.248 61.376 0 33.92 27.456 61.376 61.248 61.376 33.856 0 61.248-27.456 61.248-61.376C572.416 64.832 544.96 37.376 511.168 37.376zM511.168 261.824c-33.856 0-61.248 27.456-61.248 61.376 0 33.856 27.456 61.376 61.248 61.376 33.856 0 61.248-27.456 61.248-61.376C572.416 289.28 544.96 261.824 511.168 261.824zM735.168 261.824c-33.856 0-61.248 27.456-61.248 61.376 0 33.856 27.392 61.376 61.248 61.376 33.856 0 61.248-27.456 61.248-61.376C796.48 289.28 769.024 261.824 735.168 261.824z"  horiz-adv-x="1024" />

    
    <glyph glyph-name="jianhao" unicode="&#58956;" d="M863.74455 351.99914 163.424056 351.99914c-17.664722 0-32.00086 14.336138-32.00086 32.00086s14.336138 32.00086 32.00086 32.00086l700.320495 0c17.695686 0 31.99914-14.336138 31.99914-32.00086S881.440237 351.99914 863.74455 351.99914z"  horiz-adv-x="1024" />

    
    <glyph glyph-name="qianbao" unicode="&#58980;" d="M1057.810101-12.833616c0-14.515717-2.52897-28.033293-7.563636-40.621253-5.042424-12.554343-12.229818-23.620525-21.545374-33.179152-9.323313-9.543111-20.195556-16.983919-32.627071-22.288808-12.422465-5.321697-26.017616-8.000646-40.77899-8.018747L109.518869-116.941576c-14.760081 0-28.732768 2.660848-41.933576 8.018747-13.194343 5.339798-24.844929 12.781899-34.96598 22.288808-10.121051 9.52501-18.077737 20.591192-23.89204 33.179152-5.822061 12.606061-8.727273 26.141737-8.727273 40.621253L0 558.208c0 29.01204 10.286545 53.621657 30.859636 73.835313 20.580848 20.213657 45.637818 30.316606 75.15798 30.316606l845.776162 0c29.520162 0 54.575838-10.102949 75.147636-30.316606 20.582141-20.213657 30.868687-44.823273 30.868687-73.835313l0-155.629899L793.362101 402.578101c-29.529212 0-54.583596-9.919354-75.156687-29.764525-20.582141-19.847758-30.868687-44.272485-30.868687-73.248323 0.770586-19.849051 5.042424-37.400566 12.824566-52.659717 6.216404-12.965495 16.502949-24.784162 30.868687-35.481859 14.356687-10.696404 35.141818-16.038788 62.332121-16.038788l264.448 0L1057.810101-12.903434 1057.810101-12.833616zM899.38101 714.984727 370.474667 714.984727c41.951677 21.360485 81.565737 41.968485 118.843475 61.816242 32.628364 16.78998 64.862384 33.581253 96.703354 50.346667 31.830626 16.773172 56.676848 29.747717 74.552889 38.931394 27.191596 14.506667 51.459879 21.176889 72.803556 20.031354 21.352727-1.146828 39.403313-4.770909 54.164687-10.873535 17.097697-8.40404 31.857778-19.461172 44.288-33.186909L899.38101 714.984727zM740.940283 299.56396c0 14.505374 5.051475 26.718384 15.137616 36.619636 10.093899 9.90901 22.516364 14.873859 37.284202 14.873859 14.761374 0 27.183838-4.964848 37.267394-14.873859 10.095192-9.901253 15.137616-22.114263 15.137616-36.619636 0-14.497616-5.042424-26.903273-15.137616-37.198869-10.083556-10.304646-22.50602-15.460848-37.267394-15.460848-14.767838 0-27.190303 5.156202-37.284202 15.460848C745.991758 272.66198 740.940283 285.066343 740.940283 299.56396L740.940283 299.56396zM740.940283 299.56396"  horiz-adv-x="1058" />

    
    <glyph glyph-name="vehicle-2" unicode="&#58933;" d="M846.407 165.611l0 454.748c0 68.474-56.417 124.891-124.891 124.891l-416.076 0c-68.474 0-124.891-56.417-124.891-124.891l0-454.748c0-62.332 47.545-116.019 106.919-124.891l-109.877-136.72 118.976 0 118.976 133.763 207.924 0 109.877-133.763 113.062 0-101.004 136.72c56.417 11.829 101.004 62.332 101.004 124.891l0 0zM311.355 108.967c-29.801 0-56.417 23.659-56.417 56.417 0 29.801 23.887 56.417 56.417 56.417 29.801 0 56.417-23.887 56.417-56.417 0-29.573-23.659-56.417-56.417-56.417l0 0zM709.687 108.967c-29.801 0-56.645 23.887-56.645 56.645 0 29.573 23.887 56.417 56.645 56.417 29.801 0 56.417-23.887 56.417-56.417 0-29.801-23.887-56.645-56.417-56.645l0 0zM792.948 409.252c0-35.716-26.843-62.332-62.332-62.332l-431.09 0c-35.716 0-62.332 26.843-62.332 62.332l0 136.72c0 35.716 26.843 62.332 62.332 62.332l427.905 0c35.716 0 62.332-26.843 62.332-62.332l0-136.72 3.185 0zM792.948 409.252zM439.204 774.825l151.507 0c23.887 0 44.588 20.702 44.588 44.588 0 23.887-20.702 44.587-44.588 44.587l-151.507 0c-23.887 0-44.587-20.702-44.587-44.587 0-23.887 20.702-44.588 44.587-44.588l0 0zM439.204 774.825z"  horiz-adv-x="1024" />

    
    <glyph glyph-name="biaoqian" unicode="&#58982;" d="M959.234701 330.050249 546.665224-82.903212C517.738429-111.958002 478.99871-127.957335 437.869757-127.957335 396.698139-127.957335 358.086414-111.958002 329.031625-82.903212L44.926128 201.500938C-14.975376 261.445108-14.975376 359.062374 44.926128 419.006543L457.495606 832.045334C496.235325 870.913048 559.336696 896.000003 618.299573 896.000003 628.240492 896.000003 637.968086 895.232035 647.311697 893.781429L841.095623 863.062709C914.479233 851.329864 978.561896 787.076541 990.124081 713.735597L1020.800136 519.909006C1032.447651 446.568061 1011.797845 382.656057 959.234701 330.050249ZM725.345779 682.632893C678.201077 682.632893 640.016001 644.447817 640.016001 597.303114 640.016001 550.201077 678.201077 511.973336 725.345779 511.973336 772.447817 511.973336 810.675558 550.201077 810.675558 597.303114 810.675558 644.447817 772.447817 682.632893 725.345779 682.632893Z"  horiz-adv-x="1025" />

    
    <glyph glyph-name="tuijian" unicode="&#59093;" d="M945.937018 355.274202C945.937018 355.274202 961.589728 392.872236 961.589728 416.000014 961.589728 473.635981 910.669542 513.188244 850.39127 512 850.39127 512 736 513.02066 721.922106 513.020672 754.564614 594.90567 762.067232 678.386054 749.569568 731.501122 736.39207 787.336246 702.538042 822.441951 652.316819 825.714794 585.763878 830.047261 541.762925 785.21074 540.352633 721.512557 538.804455 650.769974 516.98396 590.933563 480.148686 537.294021 470.492863 523.233208 460.292705 510.284325 448.612627 496.811481 443.290532 490.672502 426.40492 472.428911 423.646997 468.758899 384.000001 415.999999 384.325453 384.700483 384.000001 380.290099L384.000001 3.2e-05C384.000001-7.895757 448.612627-65.422758 544.000008-65.423539 564.864834-64.828896 804.603891-65.337075 816.807309-65.422778 877.670157-58.059642 914.878886-15.971078 914.878886 37.811482 914.878886 61.866893 907.834995 77.264461 907.834995 77.264461 907.834995 77.264461 961.589722 96.000032 961.589728 159.999981 961.589728 191.692934 940.63081 221.556109 940.63081 221.556109 940.63081 221.556109 961.589728 261.250319 961.589728 288.000014 961.589728 338.828413 945.937018 355.274202 945.937018 355.274202ZM128 448l192 0 0-512-192 0 0 512Z"  horiz-adv-x="1024" />

    
    <glyph glyph-name="vehicle-4" unicode="&#58931;" d="M137.223 645.185c0 41.469 9.985 74.752 29.955 99.94s47.047 44.437 81.049 57.751c35.622 13.313 76.282 21.86 122.249 25.547 45.877 3.687 94.722 5.577 146.537 5.577 51.814 0 100.659-1.889 146.627-5.577 45.877-3.687 86.627-12.233 122.159-25.547 34.093-13.313 61.079-32.563 81.05-57.751 19.97-25.188 29.955-58.471 29.955-99.94l0-473.073c0-11.874-1.079-22.579-3.328-32.204s-5.577-18.891-9.985-27.796c-4.407-8.815-9.625-17.002-15.562-24.378-5.937-7.376-12.593-14.033-19.97-19.97l0-86.627c0-13.313-4.048-24.468-12.233-33.283-8.095-8.995-19.611-13.403-34.362-13.403l-46.687 0c-14.752 0-26.627 4.407-35.532 13.313s-13.313 19.97-13.313 33.373l0 48.846-377.631 0 0-48.846c0-13.313-4.407-24.468-13.313-33.283-8.906-8.995-20.69-13.403-35.532-13.403l-46.597 0c-14.842 0-26.267 4.407-34.453 13.313-8.095 8.906-12.233 19.97-12.233 33.283l0 86.717c-7.376 5.937-14.033 12.593-19.97 19.97s-11.065 15.562-15.562 24.378c-4.407 8.906-7.735 18.171-9.985 27.796-2.249 9.625-3.328 20.33-3.328 32.204l0 473.073zM801.362 645.185l-568.606 0 0-237.662 568.606 0 0 237.662zM303.821 123.265c8.906 0 17.811 2.249 26.627 6.657 8.906 4.407 16.282 9.625 22.219 15.562 7.376 5.937 12.953 13.313 16.643 22.219 3.687 8.815 5.577 17.722 5.577 26.627 0 10.343-1.889 19.611-5.577 27.796-3.687 8.095-9.265 15.923-16.643 23.298-5.937 5.937-13.313 10.705-22.219 14.393-8.906 3.687-17.722 5.577-26.627 5.577-8.906 0-17.811-1.889-26.627-5.577-8.906-3.687-16.282-8.545-22.219-14.393-7.466-7.376-12.953-15.203-16.732-23.298-3.687-8.095-5.577-17.361-5.577-27.796 0-8.906 1.889-17.811 5.577-26.627 3.689-8.906 9.265-16.282 16.643-22.219 5.937-5.937 13.403-11.154 22.219-15.562 8.906-4.407 17.811-6.657 26.717-6.657zM730.298 123.265c8.906 0 17.811 2.249 26.627 6.657 8.906 4.407 16.282 9.625 22.219 15.562 7.376 5.937 12.953 13.313 16.642 22.219 3.687 8.815 5.577 17.722 5.577 26.627 0 10.343-1.889 19.611-5.577 27.796-3.687 8.095-9.265 15.923-16.642 23.298-5.937 5.937-13.313 10.705-22.219 14.393-8.906 3.687-17.811 5.577-26.627 5.577-8.906 0-17.811-1.889-26.627-5.577-8.906-3.687-16.282-8.545-22.219-14.393-7.466-7.376-13.043-15.203-16.732-23.298-3.689-8.095-5.577-17.361-5.577-27.796 0-8.906 1.889-17.811 5.577-26.627 3.687-8.906 9.265-16.282 16.643-22.219 5.937-5.937 13.403-11.154 22.219-15.562 8.906-4.407 17.811-6.657 26.717-6.657z"  horiz-adv-x="1024" />

    
    <glyph glyph-name="vehicle-3" unicode="&#58932;" d="M873.481 17.962l-62.672 55.079c-16.478 15.787-38.029 24.444-60.854 24.444-0.241 0-0.482-0.002-0.723-0.004-23.378-0.187-45.321-9.43-61.785-26.029l-36.239-36.535c-5.367-5.411-12.523-8.409-20.145-8.439-0.041-0.001-0.079-0.001-0.119-0.001-7.578 0-14.71 2.937-20.093 8.277l-37.665 37.365c-16.55 16.416-38.501 25.482-61.812 25.529-0.06 0-0.119 0-0.18 0-23.243 0-45.162-8.976-61.733-25.283l-38.96-38.342c-11.037-10.862-28.996-10.862-40.034 0l-38.96 38.342c-16.572 16.309-38.489 25.283-61.733 25.283-0.059 0-0.119 0-0.18 0-23.036-0.046-44.745-8.9-61.222-24.951l-61.267-54.933c-12.23-10.964-13.254-29.767-2.29-41.995 10.964-12.229 29.766-13.254 41.995-2.29l61.772 55.382c0.372 0.334 0.737 0.676 1.092 1.028 11.038 10.95 29.033 10.985 40.115 0.081l38.96-38.342c16.567-16.304 38.493-25.283 61.738-25.283s45.17 8.979 61.738 25.283l38.962 38.342c11.081 10.905 29.076 10.868 40.115-0.08l37.665-37.364c16.606-16.473 38.601-25.531 61.977-25.53 0.121 0 0.245 0 0.366 0.001 23.511 0.095 45.577 9.339 62.134 26.032l36.239 36.534c10.995 11.085 29.027 11.228 40.196 0.322 0.372-0.364 0.754-0.716 1.145-1.059l63.2-55.542c5.648-4.965 12.649-7.402 19.62-7.402 8.257 0 16.471 3.418 22.351 10.108 10.842 12.338 9.63 31.129-2.707 41.972zM884.188 446.13l-105.169 45.573 0 133.253c0 12.272-7.538 23.285-18.979 27.725l-187.18 72.652 0 19.492c0 33.408-27.083 60.489-60.489 60.489l0 0c-33.408 0-60.489-27.082-60.489-60.489l0-19.19-193.03-74.87c-11.444-4.439-18.985-15.452-18.985-27.727l0-132.998-101.332-43.911c-15.647-6.78-21.292-26.103-11.758-40.24l156.721-251.569c3.292-4.882 8.358-8.333 14.14-9.45 27.876-5.382 53.58-18.819 74.243-39.156l2.867-2.822c8.731-8.592 22.74-8.593 31.471 0l2.867 2.821c27.402 26.967 63.665 41.82 102.109 41.82l0.295 0c38.553-0.078 74.859-15.072 102.235-42.227l1.131-1.122c8.797-8.726 23.001-8.669 31.727 0.127 21.497 21.671 48.64 35.76 78.141 40.884 5.975 1.038 11.303 4.378 14.693 9.405l156.531 251.285c9.534 14.138 3.888 33.461-11.758 40.242zM532.65 598.462c-13.582 5.886-28.996 5.886-42.578 0l-190.726-82.649 0 86.859 212.652 82.48 207.543-80.556 0-87.122-186.89 80.985z"  horiz-adv-x="1024" />

    
    <glyph glyph-name="luxian2" unicode="&#58981;" d="M504.359351 879.554758c-278.348785 0-503.996877-225.336969-503.996877-503.308177 0-277.966173 225.648092-503.309183 503.996877-503.309183 278.35986 0 504.005939 225.34301 504.005939 503.309183C1008.366297 654.217789 782.719211 879.554758 504.359351 879.554758L504.359351 879.554758zM715.4521 69.933938l-105.268478 175.468608 70.179992 0L680.363615 455.976755c0 38.764576-31.426492 70.189054-70.179992 70.189054-38.764576 0-70.191068-31.424478-70.191068-70.189054l0-210.575217c0-77.524117-62.837881-140.384149-140.358977-140.384149-77.519083 0-140.369046 62.860032-140.369046 140.384149L259.264531 455.976755 189.084539 455.976755l105.28056 175.478676 105.268478-175.478676-70.183013 0 0-210.575217c0-38.758535 31.428506-70.189054 70.183013-70.189054 38.759541 0 70.186033 31.430519 70.186033 70.189054L469.819611 455.976755c0 77.529152 62.839895 140.384149 140.364012 140.384149 77.519083 0 140.359984-62.853991 140.359984-140.384149l0-210.575217 70.186033 0L715.4521 69.933938 715.4521 69.933938zM715.4521 69.933938"  horiz-adv-x="1024" />

    
    <glyph glyph-name="hb-enterprise" unicode="&#59029;" d="M965.376 586.297h-306.119v259.925c0 12.572-10.183 22.756-22.756 22.756h-570.681c-12.572 0-22.756-10.183-22.756-22.756v-919.125c0-12.544 10.183-22.756 22.756-22.756h899.584c12.544 0 22.756 10.183 22.756 22.756v636.444c-0.028 12.572-10.212 22.756-22.784 22.756zM88.576 823.467h525.17v-873.614l-525.17-0v873.614zM942.649-50.148h-283.392v590.962h283.392v-590.962zM309.504 649.33h-122.88c-12.572 0-22.756-10.183-22.756-22.756v-82.574c0-12.572 10.183-22.756 22.756-22.756h122.908c12.572 0 22.756 10.183 22.756 22.756l-0 82.574c-0.028 12.572-10.212 22.756-22.784 22.756zM286.777 566.727h-77.426v37.092h77.397v-37.092zM515.726 649.33h-122.88c-12.572 0-22.756-10.183-22.756-22.756v-82.574c0-12.572 10.183-22.756 22.756-22.756h122.88c12.544 0 22.756 10.183 22.756 22.756v82.574c0 12.572-10.212 22.756-22.756 22.756zM492.971 566.727h-77.397v37.092h77.397l0-37.092zM309.504 439.78h-122.88c-12.572 0-22.756-10.183-22.756-22.756v-82.546c0-12.544 10.183-22.756 22.756-22.756h122.88c12.572 0 22.756 10.183 22.756 22.756v82.546c-0 12.572-10.183 22.756-22.756 22.756zM286.748 357.234h-77.397v37.063h77.397v-37.063zM515.726 439.78h-122.88c-12.572 0-22.756-10.183-22.756-22.756v-82.546c0-12.544 10.183-22.756 22.756-22.756h122.88c12.544 0 22.756 10.183 22.756 22.756v82.546c0 12.572-10.212 22.756-22.756 22.756zM492.971 357.234h-77.397v37.063h77.397l0-37.063zM309.504 230.258h-122.88c-12.572 0-22.756-10.183-22.756-22.756v-82.546c0-12.544 10.183-22.756 22.756-22.756h122.88c12.572 0 22.756 10.183 22.756 22.756v82.546c-0 12.544-10.183 22.756-22.756 22.756zM286.748 147.684h-77.397v37.063h77.397v-37.063zM515.726 230.258h-122.88c-12.572 0-22.756-10.183-22.756-22.756v-82.546c0-12.544 10.183-22.756 22.756-22.756h122.88c12.544 0 22.756 10.183 22.756 22.756v82.546c0 12.544-10.212 22.756-22.756 22.756zM492.971 147.684h-77.397v37.063h77.397l0-37.063zM739.499 331.52h122.88c12.544 0 22.756 10.183 22.756 22.756v82.546c0 12.572-10.183 22.756-22.756 22.756h-122.88c-12.544 0-22.756-10.183-22.756-22.756v-82.546c0-12.544 10.212-22.756 22.756-22.756zM762.254 414.094h77.397v-37.063h-77.397v37.063zM739.499 102.201h122.88c12.544 0 22.756 10.183 22.756 22.756v82.546c0 12.544-10.183 22.756-22.756 22.756h-122.88c-12.544 0-22.756-10.183-22.756-22.756v-82.546c0-12.572 10.212-22.756 22.756-22.756zM762.254 184.747h77.397v-37.063h-77.397v37.063z"  horiz-adv-x="1024" />

    
    <glyph glyph-name="peoples" unicode="&#58936;" d="M714.121 295.134c-11.307 2.935-20.454 12.015-23.953 23.817-2.295 7.748-3.934 23.014 10.598 38.647 56.354 54.315 91.332 142.78 91.332 231.066 0 133.427-86.084 230.263-204.681 230.263-100.873 0-178.185-70.084-199.057-173.116-24.687 31.386-61.312 50.347-104.422 50.347-79.906 0-137.916-64.742-137.916-153.95 0-56.542 22.118-113.493 57.899-149.495 0.444-0.538 0.905-1.058 1.391-1.57 5.914-6.11 5.888-11.708 4.821-15.334-0.981-3.294-3.644-7.185-8.226-8.388-112.341-21.888-200.26-85.973-200.26-146.031 0-58.624 27.204-81.638 115.038-85.188 56.593 108.809 196.096 172.006 288.205 187.648 14.131 2.398 39.467 12.8 16.981 28.459-24.875 8.354-22.178 8.525-56.346 15.138-4.454 1.271-7.066 5.137-8.013 8.38-1.033 3.507-1.101 8.892 4.335 14.797 19.268 18.662 34.671 43.341 45.065 70.844 15.266-38.98 37.197-74.018 64.247-101.086 0.555-0.717 1.161-1.399 1.801-2.057 12.868-13.321 13.124-26.368 12.297-35.038-1.553-16.179-28.578-28.271-46.891-32.887-130.313-29.158-192.282-81.57-224.333-106.487-32.051-24.926-52.352-66.756-52.352-66.756l-0.009-0.009c-5.956-13.423-9.19-26.863-9.19-40.073 0-106.231 173.875-128 434.944-128 261.069 0 434.935 21.769 434.935 128-0.009 87.552-138.223 185.293-308.241 218.061zM275.2 791.467v0z"  horiz-adv-x="1024" />

    
    <glyph glyph-name="form-definition" unicode="&#58984;" d="M627.326-87.808v0c-1.856-4.032-5.856-7.392-11.872-9.408l-80.032-26.688c-14.368-4.8-22.112 2.976-17.344 17.344l26.688 80.032c2.016 6.048 5.408 10.048 9.44 11.904l252.352 252.352 73.152-73.152-252.384-252.384zM440.19-54.848l366.368 366.368v323.904h-182.848c-40.384 0-73.152 32.768-73.152 73.152v187.424h-370.24c-58.112 0-105.184-47.072-105.184-105.152v-763.392c0-45.472 36.864-82.304 82.304-82.304h282.752zM629.15 882.24l163.648-163.648c23.2-23.2 15.392-42.016-17.376-42.016h-128.896c-32.8 0-59.424 26.624-59.424 59.392v128.864c0 32.8 18.816 40.576 42.016 17.376zM221.406 493.728c0 20.192 16.416 36.576 36.576 36.576h365.728c20.192 0 36.576-16.416 36.576-36.576 0-20.192-16.416-36.576-36.576-36.576h-365.728c-20.192 0-36.576 16.416-36.576 36.576v0zM221.406 347.424c0 20.192 16.416 36.576 36.576 36.576h365.728c20.192 0 36.576-16.416 36.576-36.576 0-20.192-16.416-36.576-36.576-36.576h-365.728c-20.192 0-36.576 16.416-36.576 36.576v0zM823.294 252.992l42.304 42.304c10.72 10.72 28.096 10.688 38.784 0.032l36.48-36.48c10.688-10.688 10.656-28.096-0.032-38.784l-42.304-42.304-75.2 75.2z"  horiz-adv-x="1024" />

    
    <glyph glyph-name="telphone" unicode="&#58881;" d="M761.661793 287.620414C732.760276 316.592552 682.054621 309.389241 653.27669 280.628966L595.597241 222.861241C568.955586 195.636966 561.11669 202.628414 493.709241 256.582621 492.738207 256.953379 353.844966 392.651034 352.997517 394.557793 321.57131 432.587034 315.127172 447.470345 343.00469 475.948138L360.359724 493.320828C360.359724 493.320828 393.110069 526.106483 406.651586 539.665655L406.651586 539.665655C435.429517 568.478897 435.270621 615.353379 406.386759 644.272552L313.30869 737.474207C284.354207 766.446345 237.568 766.605241 208.843034 737.792L208.790069 737.792C196.802207 725.927724 168.289103 697.591172 145.196138 674.039172 107.325793 627.270621 30.155034 465.408 308.683034 198.656 597.044966-77.488552 758.272-7.168 804.952276 39.618207L814.55669 49.240276 820.312276 55.013517C826.809379 61.581241 843.564138 78.318345 855.00469 89.811862 883.74731 118.572138 883.623724 165.446621 854.739862 194.365793L761.661793 287.620414 761.661793 287.620414ZM658.590897 551.318069C706.507034 503.278345 715.74069 447.558621 722.785103 413.466483 723.526621 410.129655 725.133241 407.216552 727.393103 404.939034 731.524414 400.754759 737.809655 398.742069 744.200828 400.225103 754.087724 402.449655 760.478897 411.983448 758.483862 421.517241 750.11531 462.141793 741.676138 519.697655 685.073655 576.423724 622.185931 639.558621 570.615172 642.630621 529.796414 652.111448 520.139034 654.318345 510.199172 648.456828 507.568552 638.923034 504.937931 629.389241 510.728828 619.802483 520.350897 617.577931 554.672552 609.580138 595.332414 614.823724 658.590897 551.318069L658.590897 551.318069ZM774.708966 661.415724C671.920552 764.592552 589.629793 775.079724 530.237793 789.53931 520.509793 791.869793 510.411034 786.043586 507.780414 776.509793 505.043862 767.028966 510.728828 757.442207 520.350897 755.058759 573.422345 742.188138 662.139586 722.696828 748.226207 636.327724 836.148966 548.087172 853.821793 459.175724 864.785655 404.621241 865.474207 401.231448 867.151448 398.265379 869.393655 395.987862 873.542621 391.803586 879.757241 389.843862 886.148414 391.220966 896.088276 393.392552 902.479448 402.926345 900.608 412.460138 888.302345 473.582345 887.172414 548.563862 774.708966 661.415724L774.708966 661.415724Z"  horiz-adv-x="1024" />

    
    <glyph glyph-name="costnotinclude" unicode="&#58882;" d="M830.421 83.452l-42.853 0 0-43.243c0-11.93-9.577-21.597-21.415-21.597-11.817 0-21.415 9.667-21.415 21.597l0 43.243-42.853 0c-11.817 0-21.415 9.667-21.415 21.597 0 11.954 9.598 21.621 21.415 21.621l42.853 0 0 43.243c0 11.93 9.598 21.597 21.415 21.597 11.839 0 21.415-9.667 21.415-21.597l0-43.243 42.853 0c11.839 0 21.415-9.667 21.415-21.621 0-11.93-9.577-21.597-21.415-21.597zM766.268 234.731c-71.012 0-128.561-58.053-128.561-129.635 0-35.562 14.238-67.743 37.254-91.169-15.542-8.228-32.294-15.405-50.465-21.415-34.396-11.429-73.503-17.141-117.316-17.141-44.933 0-84.747 6.605-119.442 19.77-34.695 13.164-64.132 30.284-88.314 51.356-24.18 21.073-43.38 44.614-57.596 70.669-14.217 26.055-23.587 51.95-28.158 77.685-5.12 28.684-5.827 56.201-2.126 82.531 3.702 26.33 10.375 51.082 20.044 74.189 9.667 23.13 21.759 44.339 36.271 63.653 14.512 19.314 30.284 36.569 47.357 51.791 14.787 13.461 28.158 26.193 40.087 38.192 11.954 11.999 21.918 22.97 29.871 32.911 9.667 11.13 18.193 21.667 25.598 31.609l191.963 0c6.833-9.347 15.359-19.61 25.598-30.718 8.548-9.965 19.061-21.21 31.586-33.804 12.502-12.569 27.014-25.894 43.516-39.951 13.646-12.294 27.724-26.763 42.237-43.447 14.49-16.684 27.151-36.134 37.962-58.371 10.811-22.238 18.33-47.859 22.604-76.817 2.719-18.421 3.178-38.373 1.875-59.515-13.187 4.618-27.106 7.633-41.849 7.633zM558.33 288.142c6.833 7.041 13.646 14.194 20.479 21.507 6.833 7.315 11.954 12.432 15.359 15.359 13.094 11.725 15.93 21.965 8.548 30.74-4 5.258-9.119 7.885-15.381 7.885-6.24 0-11.93-2.332-17.051-7.015-2.857-2.332-7.679-6.583-14.512-12.707-6.811-6.148-13.646-12.455-20.479-18.878-7.954-7.611-16.777-16.113-26.444-25.461l-40.957 42.122c-5.691 5.873-9.667 10.261-11.954 13.187-4.547 4.092-10.512 7.452-17.897 10.08-7.405 2.627-13.668 1.027-18.788-4.822-4.547-6.446-5.691-12.731-3.406-18.878 2.287-6.148 4.846-10.971 7.679-14.468l12.799-12.294c6.263-7.041 13.073-14.65 20.479-22.833 8.524-9.372 17.919-19.314 28.158-29.85l-0.869-18.445-58.006 0c-5.12 0-9.531-2.034-13.232-6.148-3.679-4.092-5.532-8.48-5.532-13.164 0-4.684 1.691-8.777 5.12-12.273 3.406-3.519 7.954-5.279 13.646-5.279l58.006 0 0-30.74-58.006 0c-5.12 0-9.531-1.6-13.232-4.822-3.679-3.201-5.532-7.474-5.532-12.731-0.57-4.684 0.983-8.64 4.684-11.839 3.702-3.222 8.387-4.846 14.079-4.846l58.006 0 0-17.552c0.57-8.206 3.131-13.895 7.679-17.119 4.571-3.222 10.239-4.822 17.072-4.822 6.833-0.595 12.364 1.6 16.639 6.583 4.274 4.959 6.4 10.08 6.4 15.359l0 17.552 59.722 0c5.691 0 10.375 1.326 14.079 3.954 3.702 2.627 5.258 6.879 4.684 12.731 0 12.294-7.954 18.445-23.884 18.445l-54.601 0 0.846 29.85 55.47 0.869c7.954-0.57 13.646 1.027 17.072 4.822 3.406 3.818 5.12 8.342 5.12 13.62 0 4.684-1.851 8.937-5.553 12.731-3.702 3.793-9.531 5.714-17.508 5.714l-55.446 0 0 16.661c9.667 9.372 18.49 18.445 26.444 27.22zM677.406 714.578c-3.131-4.662-6.971-8.48-11.519-11.404-10.811-7.015-19.061-14.194-24.753-21.507-5.691-7.315-11.36-15.085-17.051-23.266-2.857-4.092-5.988-8.777-9.393-14.033-3.406-5.279-6.537-10.537-9.393-15.815-3.406-6.446-7.107-12.594-11.086-18.445l-176.625 0c-3.977 7.041-7.954 13.759-11.93 20.204-3.406 5.851-7.107 11.702-11.086 17.552-4 5.851-7.405 11.13-10.239 15.815-5.691 8.754-12.091 16.525-19.199 23.244-7.107 6.741-14.079 12.731-20.912 18.009-7.383 5.258-12.502 12.432-15.359 21.507-2.834 9.073-0.274 16.821 7.679 23.266 3.977 2.926 8.524 4.092 13.646 3.519 5.12-0.595 10.537-1.782 16.227-3.519 5.691-1.76 11.222-3.519 16.639-5.258 5.394-1.782 10.375-2.058 14.926-0.892 7.977 1.76 13.942 4.822 17.919 9.211 3.977 4.388 10.811 9.806 20.479 16.251 7.383 4.684 15.633 6.285 24.73 4.822 9.119-1.462 15.93-4.526 20.479-9.211 2.287-2.949 4.708-5.417 7.267-7.474 2.56-2.034 5.258-3.954 8.091-5.714 2.857-2.332 5.988-4.366 9.393-6.125 1.143 0 2.56 0.595 4.274 1.76 3.406 2.332 7.954 6.422 13.646 12.273 6.811 6.446 13.646 11.13 20.479 14.057 6.833 2.926 15.93 2.058 27.289-2.627 5.714-1.76 10.261-4.252 13.668-7.474 3.406-3.201 6.674-6.285 9.806-9.211 3.131-2.926 6.537-5.417 10.239-7.474 3.702-2.034 8.387-3.062 14.079-3.062 5.691 0 10.512 0.892 14.512 2.627 3.977 1.76 7.817 3.382 11.519 4.846 3.702 1.439 7.383 2.469 11.086 3.062 3.702 0.57 8.114 0 13.232-1.76 5.691-2.332 9.508-5.714 11.519-10.102 1.987-4.388 2.56-8.914 1.713-13.599-0.869-4.684-2.857-9.372-5.988-14.057z"  horiz-adv-x="1024" />

    
    <glyph glyph-name="cost" unicode="&#58883;" d="M346.377 704.494c13.895-9.922 29.060-22.916 40.713-39.918 11.723-16.984 33.333-38.965 33.333-38.965h176.234c0 0 18.609 19.085 29.961 34.198 11.176 15.078 20.727 29.466 41.86 42.937 17.69 11.14 26.818 38.983 4.167 47.934-19.703 7.751-27.719-8.245-50.494-8.669-22.475-0.371-25.618 18.52-47.846 26.801-22.21 8.422-34.18 1.024-47.457-11.635-13.171-12.747-18.238-13.365-18.238-13.365 0 0-15.713 9.198-24.399 18.891-8.58 9.71-31.055 13.224-45.78 4.008-18.732-11.917-22.846-20.957-38.418-24.223-17.69-3.655-45.656 17.849-61.122 5.244-15.395-12.5-6.409-33.139 7.486-43.238v0 0zM706.472 471.976c-65.607 55.014-100.864 107.238-100.864 107.238h-192.071c0 0-36.829-54.678-95.656-105.613-67.531-58.615-122.244-152.346-101.658-264.704 18.308-99.928 113.54-213.31 294.065-213.31 174.857 0 277.416 93.837 296.978 208.472 23.923 140.006-45.003 221.131-100.793 267.917v0 0zM603.613 176.022c-11.052 0.053-69.879 0-69.879 0s0.23-15.854 0.23-24.188c0-10.116-9.534-21.345-23.058-21.169-13.542 0.177-23.552 6.515-24.647 21.91-0.371 6.921-0.247 23.446-0.247 23.446h-70.656c-11.423 0-19.332 12.959-18.962 22.44 0.353 9.64 8.934 19.721 18.962 19.721h70.78l0.124 48.358c0 0-57.379-0.424-68.008-0.424-10.876 0-18.432 7.486-18.838 16.949-0.247 9.587 8.686 27.507 18.838 27.507h68.255l0.106 17.337c0 0-54.537 57.626-60.875 63.841-6.285 6.232-14.124 20.498-3.99 31.956 9.675 10.982 27.613 3.019 36.122-5.12 9.428-9.022 53.036-53.954 53.036-53.954 0 0 50.847 47.104 61.352 55.843 10.381 8.598 24.647 9.216 32.609-0.477 7.98-9.498 4.785-18.732-8.086-30.49-12.924-11.67-62.694-62.393-62.694-62.393v-15.766h65.589c14.813-0.424 23.199-17.073 22.952-26.059-0.353-10.24-6.162-18.75-22.581-18.573l-65.589-0.177-0.371-47.828h64.388c16.79 0 23.799-8.792 24.152-20.25 0.371-11.282-7.839-22.563-19.015-22.44v0 0z"  horiz-adv-x="1024" />

    
    <glyph glyph-name="serverinfo" unicode="&#58884;" d="M866.021 306.982c-16.342-7.817-27.38 11.291-27.38 11.291s-118.847 254.7-124.743 259.888c-8.387 20.731 8.822 28.112 8.822 28.112l153.474 77.891 0-372.404-10.172-4.777zM790.759 261.958c0 0 33.895-35.631 8.846-78.918-6.926-14.49-24.889-28.524-54.052-29.826 0 0 4.41-29.119-16.044-45.619 0 0-15.015-21.141-51.561-15.337 0 0 2.08-25.781-22.079-42.876 0 0-28.73-25.324-73.205 5.509 0 0-7.062-28.958-42.558-34.899 0 0-25.919-4.045-40.933 10.879 0 0-27.106-52.27-65.71-22.879 0 0-24.432 20.706-7.199 50.076 0 0-33.004-53.116-72.017-13.164 0 0-21.667 16.661-1.623 51.538 0 0-31.083-36.043-65.251-3.314 0 0-23.266 19.404-4.708 55.744 0 0-31.814-38.373-68.772-1.737 0 0-15.633 14.626-6.627 47.197l35.769 50.098-48.293 63.127 16.342 35.334 57.139-73.845c0 0 37.278 8.685 50.237-15.062 0 0 12.229-14.331 6.926-41.689 0 0 7.657-5.646 8.251-9.28 0 0 25.461 6.215 40.933-12.319 0 0 14.148-11.566 12.525-34.009 0 0 10.148-4.342 12.229-10.581 0 0 25.026 6.377 37.254-8.685 0 0 14.879-14.17 13.851-30.833l23.266-17.531c0 0 21.644-1.875 25.187-19.245l20.912-15.793c0 0 33.415-13.599 35.334 20.706l-78.485 61.252c0 0-9.28 24.753 19.587 20.844l116.928-84.406c0 0 19.152-8.251 30.786 10.261 0 0 11.337 16.091-4.708 33.46l-124.447 92.084c0 0-11.062 25.781 17.233 23.746l147.713-107.009c0 0 20.912-8.387 29.733 7.541 0 0 11.93 15.93 0 32.432l-163.026 121.773c0 0-9.872 29.094 20.615 21.574l168.192-122.642c0 0 25.484-8.251 36.819 13.027 0 0 14.444 22.879-4.846 41.689l-237.877 212.577c0 0-44.179 21.712-70.531-23.61 0 0-4.708-73.709-84.679-87.17 0 0-54.51 4.342-41.826 40.979 0 0 15.907 21.712 14.559 67.469 0 0 1.782 32.866 24.022 60.818l-85.708 0 18.834 39.974 129.316 0c0 0 53.162 30.833 93.226 27.929 0 0 52.293-2.88 66.281-11.13 0 0 69.069-22.74 100.153-17.393l116.196-245.855-18.421-42.991zM159.679 318.707c-11.633-24.044-33.573-11.154-33.573-11.154l-3.977 2.034 0 368.793 149.931-71.538c18.398-10.286 7.062-32.157 7.222-32.157l-119.602-255.98z"  horiz-adv-x="1024" />

    
    <glyph glyph-name="flag" unicode="&#58885;" d="M141.701 397.701l0 456.274c0 29.861 16.329 42.113 40.531 30.836 214.067-99.981 428.165-199.862 642.233-299.808 2.926-1.38 5.958-2.591 8.819-4.208 10.164-5.756 15.889-14.912 15.383-28.21-0.506-12.861-6.497-21.276-16.865-26.091-80.016-37.332-160.039-74.733-240.087-112.063-89.85-41.946-179.73-83.853-269.609-125.732-4.643-2.19-9.258-4.78-14.105-5.993-12.96-3.232-26.159 6.497-29.052 21.241-0.91 4.681-1.041 9.594-1.041 14.443-0.033 108.463-0.033 216.891-0.033 325.356 0 21.14-4.916 26.661-23.733 26.661-3.198 0-6.395 0.102-9.561-0.033-10.299-0.403-16.797-7.406-17.641-19.154-0.236-3.297-0.102-6.629-0.102-9.964 0-232.685 0-465.364 0-698.013 0-3.367 0.066-6.697-0.066-10.032-0.506-12.794-6.802-20.099-18.144-20.299-15.686-0.269-31.342-0.203-47.029-0.033-13.804 0.169-19.826 7.573-19.826 24.034-0.033 135.697-0.066 271.43-0.066 407.159 0 17.909 0 35.75 0 53.627l0 0z"  horiz-adv-x="1024" />

    
    <glyph glyph-name="history" unicode="&#58889;" d="M493.954 226.154c0 39.708 12.015 76.636 32.661 107.632l-266.516 0c-14.145 0-25.614 11.182-25.614 24.964s11.469 24.964 25.614 24.964l313.975 0c34.117 25.379 76.714 40.435 122.922 40.435 17.084 0 33.623-2.054 49.46-5.927l0 296.811c0 32.583-27.095 59.03-60.513 59.03l-503.494 0c-33.415 0-60.513-26.447-60.513-59.03l0-620.773c0-32.609 27.095-59.03 60.513-59.03l460.717 0c-85.969 23.013-149.212 99.753-149.212 190.924l0 0zM260.095 619.625l348.249 0c14.145 0 25.588-11.182 25.588-24.964 0-13.809-11.44-24.964-25.588-24.964l-348.249 0c-14.145 0-25.614 11.157-25.614 24.964 0 13.782 11.469 24.964 25.614 24.964l0 0zM260.095 501.67l348.249 0c14.145 0 25.588-11.182 25.588-24.964s-11.44-24.964-25.588-24.964l-348.249 0c-14.145 0-25.614 11.182-25.614 24.964s11.469 24.964 25.614 24.964l0 0zM896.055 35.232l-65.14 78.013c-2.341 2.732-5.173 4.863-8.244 6.346 25.327 28.58 40.618 65.815 40.618 106.565 0 90.054-74.815 163.047-167.232 163.047-92.29 0-167.154-72.994-167.154-163.047 0-90.054 74.868-163.047 167.154-163.047 33.443 0 64.542 9.542 90.652 26.003 1.014-2.913 2.575-5.669 4.707-8.167l65.194-78.013c9.153-10.635 25.356-12.038 36.25-3.121 10.921 8.921 12.351 24.781 3.199 35.418l0 0zM696.059 98.059c-72.473 0-131.296 57.34-131.296 128.097 0 70.731 58.821 128.097 131.296 128.097 72.603 0 131.375-57.364 131.375-128.097 0-70.758-58.77-128.097-131.375-128.097l0 0z"  horiz-adv-x="1024" />

    
    <glyph glyph-name="visainfo" unicode="&#58890;" d="M772.093-6.064l-520.111 0c-28.707 0-52.034 22.909-52.034 51.203l0 589.281c0 38.928 7.646 62.671 34.795 69.172 27.174 6.501 470.209 69.145 470.209 69.145 52.191 7.568 69.691-18.358 69.691-51.851l0-44.364c27.488-1.379 49.407-23.558 49.407-50.941l0-580.442c0-28.293-23.222-51.203-51.956-51.203l0 0zM514.26 172.56l11.805 0c102.533 0 182.809 80.276 182.809 178.754 0 97.437-82.484 177.062-183.954 178.857-1.066 0.079-7.126 0.571-9.44 0.571-101.443-1.794-183.954-81.991-183.954-179.351 0-98.556 80.276-178.832 182.732-178.832l0 0zM725.546 676.756l0 32.506c-1.066 21.635-5.669 21.713-32.843 16.253l-357.481-48.835 390.324 0.079zM463.866 478.343c-22.754-36.171-35.131-77.466-36.538-120.348l-52.295 0c3.199 53.933 38.901 100.272 88.832 120.348l0 0zM463.373 221.863c-42.126 16.59-73.489 51.774-84.383 94.838l50.059 0c4.525-33.547 16.176-65.738 34.326-94.838l0 0zM570.329 357.997l-100.325 0c1.899 46.131 19.373 89.871 50.161 125.289 30.868-35.521 48.343-79.054 50.161-125.289l0 0zM520.011 216.583c-25.042 28.942-41.373 63.399-47.536 100.116l95.305 0c-6.163-36.795-22.494-71.172-47.77-100.116l0 0zM665.373 357.997l-52.27 0c-1.482 42.879-13.887 84.176-36.613 120.348 49.979-20.076 85.685-66.413 88.881-120.348l0 0zM661.445 316.778c-10.921-43.063-42.282-78.247-84.383-94.811 18.046 28.995 29.696 61.266 34.299 94.811l50.084 0z"  horiz-adv-x="1024" />

    
    <glyph glyph-name="trip" unicode="&#58892;" d="M795.427 370.49c-26.849 145.568-132.642 203.15-132.642 276.128 0 72.95 59.387 132.116 132.642 132.116 73.255 0 132.642-59.165 132.642-132.116 0-72.978-94.754-132.918-132.642-276.128zM795.427 716.602c-38.806 0-70.259-31.344-70.259-69.984 0-38.667 31.456-70.011 70.259-70.011 38.806 0 70.259 31.344 70.259 70.011 0 38.667-31.456 69.984-70.259 69.984zM789.433 348.492c0 0-170.645 1.329-166.649-49.122 3.994-50.482 126.652-51.814 167.981-134.139 41.329-82.326-54.672-154.028-145.318-175.275-90.645-21.248-315.962-14.619-315.962-14.619 20.719 50.874 43.994 147.401 43.994 147.401 0 0 82.658-7.959 199.989-5.298 117.303 2.663 114.641 49.122 87.983 75.669-26.683 26.575-145.318 67.735-66.653 132.809 62.134 51.426 194.636 22.578 194.636 22.578zM68.194 452.066c0 123.211 100.272 223.097 223.984 223.097 123.681 0 223.955-99.884 223.955-223.097 0-123.211-159.993-224.427-223.955-466.191-45.351 245.758-223.984 342.978-223.984 466.191zM410.813 452.066c0 65.267-53.119 118.191-118.636 118.191-65.542 0-118.662-52.923-118.662-118.191 0-65.267 53.119-118.191 118.662-118.191 65.517 0 118.636 52.923 118.636 118.191z"  horiz-adv-x="1024" />

    
    <glyph glyph-name="collection" unicode="&#58893;" d="M556.385 762.598l92.743-188.398c7.168-14.548 21.027-24.611 37.023-26.959l207.431-30.208c40.324-5.862 56.426-55.543 27.26-84.056l-150.104-146.644c-11.582-11.317-16.861-27.63-14.142-43.626l35.434-207.060c6.903-40.254-35.275-70.956-71.345-51.942l-185.521 97.757c-14.336 7.539-31.426 7.539-45.762 0l-185.521-97.757c-36.070-19.015-78.23 11.688-71.327 51.942l35.416 207.060c2.754 15.996-2.542 32.309-14.142 43.626l-150.087 146.644c-29.166 28.513-13.082 78.195 27.26 84.056l207.413 30.208c16.031 2.348 29.855 12.412 37.023 26.959l92.76 188.398c18.044 36.634 70.144 36.634 88.188 0v0z"  horiz-adv-x="1024" />

    
    <glyph glyph-name="ownpay" unicode="&#58894;" d="M805.446621 581.561379C795.824552 572.733793 784.136828 566.095448 774.832552 556.932414 764.716138 546.904276 756.241655 535.128276 747.04331 524.111448 746.743172 521.675034 746.46069 520.545103 746.107586 518.567724 728.646621 518.567724 714.610759 518.567724 696.055172 518.567724 690.246621 544.185379 699.268414 563.535448 718.865655 578.824828 728.169931 586.063448 738.251034 592.34869 747.325793 599.816828 765.422345 614.700138 770.454069 630.960552 763.268414 648.192 756.347586 664.787862 742.735448 668.989793 726.475034 668.177655 705.942069 667.17131 697.061517 653.612138 692.241655 635.780414 691.217655 632.002207 690.387862 628.18869 689.222621 623.386483L633.344 623.386483C628.824276 660.95669 653.153103 700.521931 684.208552 711.273931 722.361379 724.51531 759.384276 721.92 793.988414 701.881379 836.678621 677.111172 842.098759 614.982621 805.446621 581.561379ZM656.772414 571.515586C660.321103 566.695724 662.510345 562.582069 663.357793 559.227586 664.187586 555.890759 664.61131 552.942345 664.61131 550.382345L664.61131 540.318897 571.780414 540.318897C567.596138 540.318897 563.941517 541.890207 560.816552 545.050483 557.691586 548.193103 555.060966 551.883034 552.977655 556.084966 550.87669 560.286897 549.323034 564.594759 548.246069 569.008552 547.222069 573.422345 546.692414 576.900414 546.692414 579.407448L546.692414 657.584552 548.581517 657.584552C551.936 657.584552 555.361103 657.072552 558.909793 656.013241 562.476138 654.953931 566.536828 652.976552 571.127172 650.028138 575.752828 647.079724 581.490759 642.877793 588.411586 637.422345 595.297103 631.949241 603.965793 624.60469 614.417655 615.353379 625.716966 604.848552 634.721103 596.109241 641.377103 589.188414 648.086069 582.249931 653.206069 576.370759 656.772414 571.515586ZM664.61131 500.594759 664.61131 145.001931C664.61131 132.819862 662.192552 121.873655 657.390345 112.233931 652.588138 102.541241 646.196966 94.366897 638.252138 87.640276 630.30731 80.896 621.568 75.670069 611.928276 71.874207 602.306207 68.078345 592.896 66.206897 583.697655 66.206897L275.102897 66.206897C267.158069 66.206897 258.507034 68.484414 249.061517 73.145379 239.686621 77.753379 230.912 83.844414 222.737655 91.418483 214.580966 98.974897 207.801379 107.608276 202.345931 117.248 196.925793 126.923034 194.206897 137.004138 194.206897 147.508966L194.206897 576.247172C194.206897 585.092414 196.201931 594.220138 200.15669 603.700966 204.146759 613.146483 209.602207 621.868138 216.470069 629.848276 223.373241 637.828414 231.176828 644.466759 239.986759 649.728 248.79669 654.953931 257.977379 657.584552 267.617103 657.584552L507.162483 657.584552 507.162483 578.789517C507.162483 570.368 508.45131 561.646345 510.958345 552.606897 513.447724 543.585103 517.437793 535.181241 522.857931 527.377655 528.295724 519.609379 535.216552 513.200552 543.567448 508.168828 551.936 503.137103 561.752276 500.594759 573.016276 500.594759L664.61131 500.594759ZM283.877517 197.014069C291.416276 189.245793 300.596966 185.344 311.507862 185.344L546.692414 185.344C557.568 185.344 566.766345 189.245793 574.287448 197.014069 581.826207 204.76469 585.586759 214.121931 585.586759 225.085793 585.586759 235.99669 581.826207 245.230345 574.287448 252.786759 566.766345 260.378483 557.568 264.15669 546.692414 264.15669L311.507862 264.15669C300.596966 264.15669 291.416276 260.378483 283.877517 252.786759 276.391724 245.230345 272.595862 235.99669 272.595862 225.085793 272.595862 214.121931 276.391724 204.76469 283.877517 197.014069ZM311.507862 421.782069C300.614621 421.782069 291.416276 417.897931 283.895172 410.129655 276.391724 402.343724 272.595862 393.004138 272.595862 382.057931 272.595862 371.147034 276.391724 361.895724 283.895172 354.321655 291.416276 346.765241 300.614621 342.969379 311.507862 342.969379L546.692414 342.969379C557.568 342.969379 566.766345 346.765241 574.287448 354.321655 581.826207 361.895724 585.586759 371.147034 585.586759 382.057931 585.586759 393.004138 581.826207 402.343724 574.287448 410.129655 566.766345 417.897931 557.568 421.782069 546.692414 421.782069L311.507862 421.782069ZM724.568276 486.117517C745.542621 486.523586 761.89131 470.333793 761.856 449.05931 761.82069 428.685241 746.513655 413.095724 726.121931 412.742621 705.800828 412.354207 689.363862 427.678897 688.692966 447.540966 688.039724 468.744828 703.805793 485.729103 724.568276 486.117517Z"  horiz-adv-x="1024" />

    
    <glyph glyph-name="time" unicode="&#58896;" d="M512-75.618c-253.826 0-459.618 205.795-459.618 459.618 0 253.86 205.795 459.618 459.618 459.618 253.826 0 459.618-205.757 459.618-459.618 0-253.826-205.795-459.618-459.618-459.618zM512 805.318c-232.338 0-421.318-188.981-421.318-421.318 0-232.3 188.981-421.318 421.318-421.318 232.3 0 421.318 189.018 421.318 421.318 0 232.338-189.018 421.318-421.318 421.318zM473.7 345.7l0.116 268.036 38.185 0.075 0-229.81 268.11 0-0.231-37.919-306.179-0.382z"  horiz-adv-x="1024" />

    
    <glyph glyph-name="callphone" unicode="&#58897;" d="M906.841 97.882c-1.011-1.418-109.387-145.489-165.75-145.489l-1.389 0c-113.711 3.628-254.054 88.526-417.627 252.224-163.572 163.731-248.373 304.17-251.908 417.376-1.798 57.122 143.785 166.917 145.301 167.93 14.169 9.911 30.615 14.581 46.235 14.581 20.704 0 39.987-8.175 50.907-23.294 9.846-13.668 99.094-149.117 108.566-164.143 12.719-19.979 11.487-48.791-3.41-77.006-5.995-11.394-58.953-91.491-70.725-112.132 14.014-19.03 44.026-56.523 99.191-111.721 55.165-55.165 92.593-85.242 111.687-99.317 20.639 11.771 87.925 77.543 99.379 83.538 14.989 7.919 30.517 11.961 44.752 11.961 11.741 0 22.627-2.714 31.654-8.268 16.411-10.034 151.644-100.014 164.077-108.721 24.901-17.483 35.503-59.712 9.056-97.518zM846.121 480.795c-6.215-5.274-14.422-8.204-23.197-7.479-17.483 1.418-30.548 16.759-29.129 34.273l11.487 141.796-151.581-148.803c-12.466-12.215-32.445-12.021-44.656 0.442-12.181 12.435-11.994 32.411 0.442 44.624l161.303 158.301-154.545 12.528c-17.516 1.418-30.583 16.79-29.129 34.305 1.389 17.483 16.759 30.548 34.273 29.129l224.924-18.242c17.516-1.418 30.583-16.759 29.162-34.273l-18.242-224.957c-0.726-8.741-4.926-16.381-11.108-21.648z"  horiz-adv-x="1024" />

    
    <glyph glyph-name="computer" unicode="&#58898;" d="M932.782 189.372l-815.276 0c-33.454 0-78.899 23.197-78.899 56.113l0 489.205c0 32.916 27.108 59.583 60.563 59.583l825.662 0c33.454 0 60.563-26.67 60.563-59.583l0-489.205c0-32.916-19.156-56.113-52.609-56.113zM513.167 221.658c14.548 0 26.352 11.615 26.352 25.943 0 14.358-11.804 25.974-26.352 25.943-14.581 0-26.385-11.615-26.385-25.943 0-14.297 11.804-25.943 26.385-25.943zM932.971 719.731c0 12.181-9.723 22.094-21.744 22.094l-798.454 0c-11.994 0-21.744-9.911-21.744-22.094l0-402.951c0-12.181 9.751-22.094 21.744-22.094l798.454 0c12.021 0 21.744 9.911 21.744 22.094l0 402.951zM404.917 47.859c6.25 11.645 14.266 114.939 14.266 114.939l185.066 0c0 0 8.045-103.292 14.266-114.939 6.25-11.645 13.54-16.634 22.062-22.279 4.829-3.22 1.639-8.079 0-12.341-1.389-3.44-61.415-7.953-128.763-7.953-0.031 0-0.062 0-0.096 0-0.031 0-0.031 0-0.062 0-67.348 0-127.406 4.703-128.763 8.175-1.705 4.26-4.86 9.307 0 12.528 8.489 5.681 15.811 10.226 22.029 21.87z"  horiz-adv-x="1024" />

    
    <glyph glyph-name="order" unicode="&#58899;" d="M805.635 211.551c-63.714 0-115.418-53.756-115.418-120.05 0-66.377 51.649-120.105 115.418-120.105 63.796 0 115.501 53.702 115.501 120.105 0 66.294-51.76 120.05-115.501 120.05l0 0 0 0zM881.861 122.846c0 0-83.049-84.879-83.491-85.349-9.458-9.708-14.423-8.127-18.585-3.716l-49.706 51.649c-4.189 4.354-3.938 11.706 0.582 16.366 4.465 4.743 11.539 4.993 15.783 0.557l40.608-42.217 78.693 79.886c4.576 4.604 11.845 4.522 16.309-0.194 4.465-4.799 4.384-12.371-0.194-16.975l0 0 0 0zM422.493 694.441l176.941 0c18.64 0 34.368 18.197 34.368 40.745 0 22.467-15.671 40.608-35.365 40.608l-175.942 0c-19.611 0-35.281-18.14-35.281-40.608 0-22.495 15.726-40.745 35.281-40.745l0 0 0 0zM792.349 248.887c20.582 0 40.138-4.354 57.917-12.4l0 402.366c0 55.198-28.597 93.421-88.511 93.421l-79.748 0c0.775-4.438 1.277-8.96 1.277-13.537 0.027-34.173-23.854-67.82-52.203-67.82l-244.925 0c-29.873 0-53.756 33.646-53.756 67.82 0.054 4.522 0.557 9.099 1.303 13.537l-80.718 0c-64.851 0-80.773-38.223-80.773-93.421l0-546.298c0-59.276 22.829-92.452 85.684-92.452l422.364 0c-21.109 26.295-33.841 60.218-33.841 97.165 0 83.74 65.295 151.615 145.927 151.615l0 0 0 0zM342.441 524.795l345.723 0c12.787 0 23.55-12.371 24.521-26.657 0-13.314-13.396-27.598-26.158-27.598l-346.693 0c-12.816 0-20.914 14.286-20.914 27.598s10.763 26.657 23.522 26.657l0 0 0 0zM498.135 164.287l-158.3 0c-12.816 0-20.914 14.286-20.914 27.598s10.763 26.601 23.522 26.601l157.328 0c12.816 0 23.606-12.287 24.575-26.601 0-13.314-13.454-27.598-26.211-27.598l0 0 0 0zM338.364 315.043c-12.758 0-25.519 16.309-25.519 29.625 0 13.285 10.763 24.575 23.575 24.575l345.723 0c12.787 0 23.55-10.291 24.575-24.575 0-13.314-8.847-29.625-21.607-29.625l-346.751 0z"  horiz-adv-x="1024" />

    
    <glyph glyph-name="buy-question" unicode="&#58900;" d="M854.83 569.173l-69.664-306.832h-353.114l-28.020-88.976c13.895-10.628 24.044-25.894 27.677-43.723h223.594c7.452 31.632 35.609 55.31 69.389 55.31 39.471 0 71.47-32.18 71.47-71.925 0-39.676-31.998-71.857-71.47-71.857-29.758 0-55.218 18.26-66.006 44.225h-231.708c-11.36-25.986-37.071-44.225-67.15-44.225-40.476 0-73.321 32.979-73.321 73.663 0 40.705 32.842 73.731 73.321 73.731 0.983 0 1.806-0.229 2.743-0.252l23.313 74.028h-26.055l-87.010 345.070-52.452 35.197c-2.812-0.618-5.462-1.737-8.454-1.737-23.587 0-42.739 19.266-42.739 42.945 0 23.814 19.152 43.013 42.739 43.013 23.563 0 42.718-19.245 42.718-43.013 0-3.382-1.143-6.467-1.943-9.691l44.682-29.94 557.462-75.010zM567.631 315.641l24.867 24.867-25.21 25.21-24.867-24.867 25.21-25.21zM525.279 481.318l26.214 29.895h30.581c5.714-7.383 10.423-14.444 15.793-21.849v-22.171l-48.385-35.952v-62.166h34.947v45.025l48.727 35.631v51.744l-32.934 45.025h-62.51l-38.305-45.025 25.872-20.158z"  horiz-adv-x="1024" />

    
    <glyph glyph-name="buyinfo" unicode="&#58901;" d="M928.068 608.732l-84.546-372.38-428.549 0-34.006-107.984c16.863-12.899 29.181-31.425 33.589-53.063l271.36 0c9.044 38.389 43.216 67.125 84.212 67.125 47.903 0 86.738-39.054 86.738-87.291 0-48.151-38.833-87.207-86.738-87.207-36.115 0-67.014 22.16-80.107 53.673l-281.207 0c-13.787-31.537-44.99-53.673-81.495-53.673-49.122 0-88.985 40.025-88.985 89.399 0 49.402 39.857 89.482 88.985 89.482 1.194 0 2.191-0.277 3.329-0.306l28.293 89.842-31.621 0-105.598 418.787-63.658 42.716c-3.412-0.75-6.628-2.109-10.26-2.109-28.625 0-51.869 23.381-51.869 52.119 0 28.901 23.244 52.203 51.869 52.203 28.597 0 51.844-23.357 51.844-52.203 0-4.103-1.387-7.849-2.358-11.761l54.227-36.336 676.553-91.035zM546.673 297.321l34.673 0 0 34.673-34.673 0 0-34.673zM546.673 366.663l34.673 0 17.337 190.698-69.345 0 17.337-190.698z"  horiz-adv-x="1024" />

    
    <glyph glyph-name="home" unicode="&#58902;" d="M876.059 405.819c0-40.281-32.919-72.994-73.618-72.994l-17.606 0 0-261.732c0-42.621-38.486-77.154-86.021-77.154-47.536 0-86.125 34.532-86.125 77.154l0 261.732-201.479 0 0-261.732c0-42.646-38.486-77.154-86.021-77.154-47.536 0-86.1 34.532-86.1 77.154l0 261.732-17.63 0c-40.592 0-73.513 32.714-73.513 72.994l0 4.785c0.364 12.768 2.913 22.181 12.038 35.105 1.743 2.653 280.144 297.879 280.144 297.879 19.424 20.465 44.987 30.27 70.524 30.294l0 0.182c0.442 0.025 0.91-0.105 1.351-0.105 0.468 0 0.91 0.13 1.3 0.105l0-0.182c25.614-0.025 51.124-9.83 70.471-30.294 0 0 278.507-295.226 280.247-297.879 9.127-12.925 11.675-22.337 12.038-35.105l-0.079-3.692c0-0.364 0.079-0.727 0.079-1.092zM857.441 627.661c-0.079-0.858-0.157-1.769-0.364-2.575-0.91-4.369-2.367-6.605-4.811-9.153l-0.727-0.677c-0.207-0.105-0.207-0.182-0.287-0.235-8.217-7.725-21.167-7.358-29.021 0.833l-55.363 58.041-0.468 0.571-55.363 58.066c-7.749 8.191-7.386 21.038 0.833 28.813 0 0.025 0.182 0.105 0.182 0.13l0.727 0.727c2.732 2.39 5.097 3.666 9.57 4.345 0.833 0.157 1.637 0.157 2.547 0.235 1.014 0.105 1.846 0.182 3.018 0.207l108.828 0.287c7.932 0.025 14.797-3.25 19.712-8.373l0 0.051c0.079-0.13 0.182-0.207 0.26-0.311 0.105-0.079 0.182-0.157 0.287-0.235l0-0.051c4.837-5.15 7.749-12.144 7.307-19.997l-6.397-107.71c-0.105-1.145-0.287-2.054-0.468-2.989z"  horiz-adv-x="1024" />

    
    <glyph glyph-name="wodeshoucang" unicode="&#58903;" d="M786.361379 431.880828 678.700138 325.402483C672.379586 319.152552 669.501793 310.166069 671.002483 301.356138L696.408276 151.00469C700.168828 128.794483 677.199448 111.863172 657.549241 122.350345L524.464552 193.341793C516.660966 197.508414 507.339034 197.508414 499.535448 193.341793L366.450759 122.350345C346.800552 111.863172 323.831172 128.794483 327.591724 151.00469L352.997517 301.356138C354.498207 310.166069 351.620414 319.152552 345.299862 325.402483L237.638621 431.880828C221.73131 447.593931 230.505931 474.994759 252.468966 478.225655L401.266759 500.171034C409.988414 501.459862 417.544828 507.021241 421.446621 515.03669L487.97131 651.828966C497.805241 672.026483 526.194759 672.026483 536.011034 651.828966L602.553379 515.03669C606.455172 507.021241 614.011586 501.459862 622.733241 500.171034L771.513379 478.225655C793.494069 474.994759 802.26869 447.593931 786.361379 431.880828Z"  horiz-adv-x="1024" />

    
    <glyph glyph-name="gift" unicode="&#58904;" d="M876.256 520.596l0 45.532c0 25.135-20.377 45.532-45.532 45.532l-171.994 0c7.821 13.435 12.62 28.862 12.62 45.532 0 50.31-40.754 91.063-91.063 91.063-27.341 0-51.596-12.321-68.287-31.39-16.691 19.07-40.946 31.39-68.308 31.39-50.289 0-91.063-40.754-91.063-91.063 0-16.671 4.82-32.097 12.642-45.532l-171.994 0c-25.155 0-45.532-20.399-45.532-45.532l0-45.532 728.512 0zM443.692 702.724c-25.135 0-45.532-20.377-45.532-45.532 0-25.135 20.399-45.532 45.532-45.532 25.155 0 45.532 20.399 45.532 45.532 0 25.155-20.377 45.532-45.532 45.532zM580.287 702.724c-25.135 0-45.532-20.377-45.532-45.532 0-25.135 20.399-45.532 45.532-45.532 25.155 0 45.532 20.399 45.532 45.532 0 25.155-20.377 45.532-45.532 45.532zM489.223 475.063l0-182.129-250.416 0 0-45.532 250.416 0 0-182.129 45.532 0 0 182.129 250.437 0 0 45.532-250.437 0 0 182.129 295.969 0 0-364.256c0-50.289-40.775-91.063-91.063-91.063l-455.319 0c-50.289 0-91.063 40.775-91.063 91.063l0 364.256 295.948 0z"  horiz-adv-x="1024" />

    
    <glyph glyph-name="discount" unicode="&#58905;" d="M32.038 534.845c0 19.724 3.245 33.804 9.417 42.327 6.263 8.411 20.066 12.525 41.711 12.525l133.109 0 0-548.413-57.139 0c-15.313 0-30.329 0.138-45.231 0.502-15.015 0.252-25.141 0.502-30.672 0.502-18.764-0.754-31.975 2.56-39.609 9.965-7.611 7.29-11.519 21.301-11.519 41.732l0 157.862c0 8.022 1.326 14.148 3.679 17.987 2.332 4 7.405 6.789 15.062 8.297 2.834 0 6.514 1.121 11.519 3.291 4.754 2.308 9.645 5.851 14.468 10.605 4.822 4.732 9.05 10.834 12.48 18.604 3.428 7.611 5.235 16.891 5.235 27.975 0 16.799-4.274 29.895-12.958 39.403-8.662 9.485-17.965 15.085-27.724 16.387-7.541 1.439-13.142 3.931-16.594 7.153-3.497 3.428-5.235 9.05-5.235 17.072l0 116.22zM118.432 639.02l0 28.592c0 14.512 5.484 28.137 16.159 40.545 10.673 12.387 22.374 18.673 34.854 18.673l143.714 0 0-87.81-194.727 0zM966.89 401.072c-5.44-1.554-9.531-4.618-11.999-9.485-2.239-4.594-3.679-9.965-3.679-15.678 0-5.988 1.371-11.588 3.679-17.004 2.469-5.6 6.559-9.461 11.999-11.588 5.532-2.308 10.012-6.674 13.073-13.142 3.201-6.652 4.937-13.507 5.188-20.912 0.365-7.29-0.595-14.331-2.606-20.821-2.101-6.537-5.166-11.313-9.28-14.307-13.851-8.777-20.731-18.626-20.731-29.575 0-10.971 6.811-22.055 20.731-32.82 2.834-2.308 5.302-6.353 7.771-12.021 2.377-5.988 3.566-11.771 3.566-17.76 0-5.851-1.258-10.834-4.092-15.2-2.834-4.479-7.657-6.652-14.581-6.652l-56.201 0c-3.977 0-6.331 0.365-6.583 1.234-0.343 0.754 0.138 1.943 1.395 3.679 1.395 1.919 3.085 3.931 5.188 6.24 2.101 2.171 3.793 4.732 5.302 7.657 3.428 10.193 3.428 18.992 0 26.284-3.566 7.405-9.28 13.507-17.782 18.604-5.553 2.926-9.645 7.541-11.885 13.895-2.469 6.102-3.428 12.502-3.062 19.108 0.229 6.674 1.371 12.411 3.543 17.508 2.126 5.235 5.326 8.914 9.302 11.086 5.667 2.171 9.76 6.24 12.48 12.021 2.834 5.735 4.206 12.021 4.206 18.626 0 6.583-1.212 12.639-3.062 18.125-2.126 5.462-5.188 9.324-9.531 11.451-5.417 3.04-9.76 7.29-12.958 13.257-3.131 5.622-4.64 12.159-4.64 19.495 0 7.405 1.258 14.444 4.092 21.439 2.834 6.971 7.178 12.639 13.438 16.982 4.342 2.926 7.793 6.926 10.491 12.021 2.971 5.235 4.228 10.581 4.822 16.455 0.365 5.898-0.96 11.519-3.201 16.982-2.469 5.553-6.811 10.034-13.073 13.712-6.811 3.612-11.999 9.028-15.062 15.885-3.085 6.971-4.708 14.194-4.708 21.415 0 7.405 1.623 14.261 4.708 20.935 3.062 6.467 7.405 11.702 12.958 15.426 11.747 6.491 18.375 15.518 19.29 26.785 1.074 11.337 0.229 21.872-2.606 31.198-2.218 7.405-6.263 13.964-12.342 19.814-6.331 5.898-14.352 8.777-23.998 8.777l-499.685 0 0 86.621 586.124 0c4.846 0 8.822-1.875 12.251-5.484 3.566-3.679 5.898-8.022 6.926-13.187 1.095-5.12 0.732-10.399-1.074-15.885-1.623-5.417-4.937-10.148-9.898-13.827-4.206-3.679-7.885-8.297-10.971-14.194-3.201-5.873-4.708-11.839-5.302-18.125-0.252-6.309 0.732-12.411 2.719-18.695 1.987-6.172 5.783-10.765 11.381-13.69 7.793-4.366 13.461-10.399 17.187-18.009 3.862-7.657 5.851-15.313 5.851-22.9 0-7.793-1.987-14.901-5.783-21.439-3.793-6.652-9.05-11.451-16.044-14.261-7.657-3.04-13.325-7.153-16.707-12.639-3.543-5.532-5.302-11.588-5.783-18.057-0.365-6.605 0.96-13.027 3.977-19.177 3.201-6.285 8.273-11.725 15.2-16.067 6.926-4.228 12.113-10.102 15.2-17.508 3.062-7.222 4.342-14.512 4.092-21.918-0.365-7.29-2.101-14.012-5.188-20.295-3.178-6.102-7.725-9.667-14.033-10.399l0 0 0 0zM831.585 417.504c-8.251-2.171-14.695-6.491-19.29-12.525-4.458-6.353-6.811-12.639-7.29-19.358-0.252-6.537 1.508-13.142 5.188-19.814 3.977-6.467 9.531-11.199 17.301-14.125 6.811-3.062 12.113-7.405 15.542-13.142 3.566-5.988 5.44-12.137 5.805-18.74 0.365-6.605-0.96-12.891-3.679-18.626-2.719-5.851-6.948-10.33-12.48-13.142-17.301-8.914-26.42-19.495-26.946-31.883-0.846-12.387 5.783-22.238 19.655-29.712 6.263-2.926 11.337-7.405 15.062-13.62 3.862-6.24 5.92-12.777 6.331-19.814 0.365-6.789-0.96-13.142-3.793-18.49-2.719-5.735-7.29-9.347-13.438-11.725-8.387-2.171-14.719-6.079-19.426-11.999-4.342-5.735-6.697-12.021-7.041-18.513-0.502-6.789 1.258-13.257 5.166-19.792 3.818-6.674 9.898-12.137 18.147-16.57 5.667-2.926 9.531-7.541 11.999-13.646 2.469-6.331 3.314-12.273 2.719-18.125-0.846-5.851-2.719-11.199-5.898-15.815-3.085-4.846-7.428-7.153-13.094-7.153l-544.412 0 0 548.526 550.676 0c5.553 0 10.012-2.239 13.211-7.153 3.085-4.754 4.708-9.965 5.188-15.885 0.365-5.92-0.96-11.702-3.793-17.508-2.719-5.783-7.29-9.898-13.438-12.021-6.285-2.239-11.337-5.92-15.2-11.015-3.862-5.051-6.034-10.834-6.811-16.934-0.618-6.285 0.846-12.205 4.206-18.125 3.566-5.92 9.417-10.286 17.804-13.142 6.148-2.926 11.313-7.29 15.062-13.211 3.748-5.898 6.034-11.817 6.263-17.987 0.365-6.422-1.074-12.137-4.092-17.76-3.085-5.347-8.137-9.28-15.2-11.451l0 0 0 0zM580.681 343.889c-3.338 0-7.062 0.388-10.993 1.121-3.726 0.869-4.458 3.062-2.582 6.674 0.846 1.302 4.092 6.537 10.012 15.313 5.898 8.914 12.364 18.125 19.77 27.975 7.29 9.965 13.873 19.245 20.387 27.951 6.148 8.777 9.987 14.261 11.337 16.57 3.543 5.714 1.371 12.639-6.285 20.731-1.258 1.508-4.092 3.748-8.366 6.741-3.977 2.857-7.84 5.028-11.291 6.467-5.667 2.101-9.645 2.538-12.113 1.052-2.239-1.439-5.302-4.662-8.732-9.828-1.395-2.126-4.822-7.474-10.491-15.839-5.484-8.571-11.404-17.439-17.666-26.946-6.215-9.598-11.999-18.125-17.187-25.667-5.302-7.793-8.206-12.273-8.799-13.827-1.326-2.812-4.045-4.045-7.907-3.291-3.793 0.754-6.331 2.538-7.657 5.484-0.846 1.418-3.84 5.714-9.461 12.754-5.6 6.789-11.566 14.581-17.713 23.472-6.172 8.914-12.251 16.891-18.147 24.661-5.988 7.725-9.898 12.958-12.067 16.021-6.263 12.387-12.845 16.365-19.701 11.954-4.892-2.88-9.302-5.988-13.164-9.211-3.793-3.428-7.405-6.172-10.834-8.411-6.948-4.983-7.977-11.655-3.153-19.678 11.771-14.581 22.26-28.09 31.289-40.614 7.611-10.217 14.833-19.93 21.897-29.712 6.879-9.324 11.038-14.812 12.364-16.433 1.439-2.812 0-4.366-4.159-4.366l-12.364 0c-3.428 0-8.571-0.114-15.062-0.48-6.697-0.388-12.799-0.252-18.398 0.48-5.484 0-10.08-1.302-13.575-4.366-3.36-2.788-4.458-6.467-3.017-10.811 0.686-3.062 1.027-7.428 1.027-13.142l0-13.394c0-3.566 0.983-5.622 3.153-5.988 2.101-0.32 4.458-0.433 7.29-0.433l60.406 0c8.206 0 12.364-1.806 12.364-5.484l0-20.798c0-3.793-0.618-5.6-2.058-5.6l-69.755 0c-4.092 0.754-6.811-0.388-8.251-3.178-1.326-3.062-2.353-6.353-3.153-9.965-0.707-3.793-0.707-7.153 0-10.33 0.8-3.428 0.983-6.24 0.983-8.297 0-9.577 4.502-14.307 13.554-14.307l62.532 0c3.612 0 5.6-0.502 6.194-1.577 0.662-1.121 1.095-3.543 1.095-7.153 0.732-3.679 0.96-10.217 0.48-19.678-0.297-9.598-0.548-15.747-0.548-18.81 0-8.022 4.526-12.021 13.507-12.021l33.392 0c5.553 0 8.387 1.806 8.387 5.6l0 43.79c0 7.405 3.201 11.086 9.28 11.086l9.417 0c4.822 0 10.354 0.138 16.159 0.618 6.011 0.252 11.633 0.502 17.051 0.502l13.575 0c9.645 0 14.695 3.679 14.695 10.834l0 24.227c0 6.674-3.428 9.965-10.354 9.965l-60.545 0c-6.811-1.554-10.491 0-10.491 4.366 0 2.058-0.114 4.846-0.48 8.159-0.365 3.291-0.412 6.215-0.412 9.28 0 2.812 1.074 5.097 3.543 6.467 2.538 1.554 5.141 2.308 7.84 2.308l61.503 0c6.811 0 10.375 2.422 10.375 7.657l0 26.352c0 2.926-1.212 5.714-3.679 8.64-2.469 3.062-5.44 4.366-8.799 4.366l-35.449 0z"  horiz-adv-x="1024" />

    
    <glyph glyph-name="costnotincludes" unicode="&#58906;" d="M830.333 101.97l-128.126 0c-11.954 0-21.644 9.667-21.644 21.621l0 0.252c0 11.954 9.691 21.644 21.644 21.644l128.126 0c11.954 0 21.644-9.691 21.644-21.644l0-0.252c0-11.954-9.691-21.621-21.644-21.621zM766.268 253.96c-71.012 0-128.561-58.144-128.561-129.887 0-35.699 14.285-67.995 37.369-91.466-15.518-8.206-32.249-15.359-50.35-21.371-34.421-11.404-73.571-17.119-117.385-17.119-44.957 0-84.794 6.605-119.511 19.77-34.717 13.164-64.177 30.284-88.358 51.356-24.204 21.049-43.402 44.614-57.618 70.645-14.238 26.055-23.632 51.95-28.18 77.709-5.12 28.66-5.827 56.178-2.149 82.507 3.702 26.352 10.399 51.082 20.066 74.189 9.667 23.13 21.78 44.339 36.294 63.653 14.512 19.314 30.307 36.569 47.379 51.791 14.787 13.461 28.158 26.193 40.111 38.192 11.954 11.999 21.918 22.97 29.895 32.911 9.667 11.13 18.193 21.667 25.598 31.609l192.076 0c6.833-9.347 15.381-19.61 25.619-30.718 8.524-9.965 19.061-21.232 31.586-33.804 12.525-12.594 27.037-25.894 43.539-39.951 13.668-12.294 27.746-26.763 42.258-43.447 14.512-16.684 27.174-36.134 37.986-58.371 10.811-22.238 18.352-47.859 22.627-76.817 2.697-18.308 3.178-38.123 1.897-59.126-13.279 4.684-27.337 7.748-42.191 7.748zM558.513 306.892c6.833 7.015 13.668 14.194 20.501 21.507 6.811 7.315 11.954 12.432 15.359 15.359 13.094 11.702 15.93 21.941 8.548 30.718-4 5.258-9.119 7.907-15.381 7.907-6.263 0-11.954-2.353-17.072-7.015-2.834-2.353-7.679-6.583-14.512-12.731-6.833-6.148-13.668-12.432-20.479-18.878-7.977-7.611-16.799-16.091-26.467-25.461l-40.979 42.122c-5.691 5.873-9.691 10.261-11.954 13.187-4.547 4.092-10.537 7.452-17.919 10.08-7.405 2.652-13.668 1.027-18.788-4.822-4.547-6.422-5.691-12.731-3.428-18.878 2.287-6.148 4.846-10.971 7.679-14.468l12.821-12.294c6.263-7.015 13.094-14.626 20.479-22.833 8.548-9.372 17.919-19.314 28.18-29.85l-0.846-18.421-58.053 0c-5.141 0-9.531-2.058-13.232-6.148-3.702-4.114-5.553-8.502-5.553-13.187 0-4.662 1.691-8.777 5.12-12.273 3.406-3.519 7.954-5.279 13.668-5.279l58.053 0 0-30.718-58.053 0c-5.141 0-9.531-1.6-13.232-4.822-3.702-3.222-5.553-7.474-5.553-12.731-0.57-4.684 0.983-8.64 4.684-11.862 3.702-3.201 8.387-4.822 14.101-4.822l58.053 0 0-17.552c0.57-8.206 3.131-13.895 7.679-17.119 4.547-3.222 10.239-4.822 17.072-4.822 6.833-0.595 12.364 1.6 16.639 6.559 4.274 4.983 6.4 10.102 6.4 15.381l0 17.552 59.766 0c5.691 0 10.375 1.326 14.079 3.954 3.702 2.627 5.279 6.879 4.684 12.731 0 12.294-7.954 18.445-23.884 18.445l-54.647 0 0.869 29.85 55.47 0.869c7.977-0.595 13.668 1.027 17.095 4.822 3.406 3.818 5.12 8.342 5.12 13.62 0 4.662-1.851 8.914-5.553 12.707-3.702 3.818-9.531 5.714-17.508 5.714l-55.493 0 0 16.684c9.691 9.347 18.513 18.421 26.467 27.22zM677.658 733.305c-3.131-4.684-6.971-8.502-11.519-11.429-10.834-7.015-19.084-14.194-24.775-21.484-5.691-7.337-11.381-15.085-17.072-23.266-2.834-4.114-5.966-8.777-9.372-14.057-3.428-5.258-6.559-10.537-9.417-15.815-3.406-6.422-7.107-12.569-11.086-18.421l-176.718 0c-3.977 7.015-7.977 13.759-11.954 20.204-3.406 5.851-7.107 11.702-11.086 17.552-4 5.851-7.405 11.107-10.261 15.793-5.691 8.777-12.091 16.525-19.199 23.266-7.107 6.72-14.101 12.731-20.912 17.987-7.405 5.279-12.525 12.432-15.381 21.507-2.834 9.073-0.274 16.821 7.679 23.266 4 2.926 8.548 4.114 13.668 3.519 5.12-0.595 10.537-1.76 16.227-3.519 5.691-1.76 11.245-3.519 16.639-5.258 5.417-1.76 10.399-2.058 14.947-0.892 7.977 1.76 13.942 4.822 17.919 9.234 4 4.388 10.811 9.781 20.501 16.227 7.405 4.684 15.655 6.285 24.753 4.846 9.119-1.462 15.93-4.547 20.479-9.234 2.287-2.926 4.708-5.417 7.267-7.474 2.56-2.034 5.258-3.931 8.114-5.691 2.834-2.332 5.966-4.388 9.393-6.148 1.143 0 2.56 0.595 4.252 1.76 3.428 2.332 7.977 6.446 13.668 12.294 6.833 6.422 13.668 11.107 20.501 14.033 6.811 2.926 15.93 2.058 27.312-2.627 5.691-1.76 10.239-4.228 13.668-7.452 3.406-3.222 6.674-6.309 9.806-9.234 3.131-2.926 6.537-5.394 10.239-7.474 3.702-2.034 8.411-3.062 14.101-3.062 5.667 0 10.512 0.892 14.512 2.652 3.977 1.737 7.817 3.36 11.519 4.822 3.702 1.462 7.405 2.491 11.086 3.062 3.702 0.595 8.114 0 13.232-1.76 5.691-2.332 9.531-5.714 11.541-10.08 1.987-4.388 2.56-8.937 1.713-13.62-0.869-4.684-2.857-9.347-5.988-14.033z"  horiz-adv-x="1024" />

    
    <glyph glyph-name="right" unicode="&#58907;" d="M493.467-80.885c-12.083 0-24.172 4.603-33.424 13.759-18.405 18.315-18.405 48.019 0 66.334l410.826 408.036-410.826 408.036c-18.405 18.315-18.405 48.019 0 66.334 18.452 18.315 48.345 18.315 66.794 0l477.575-474.366-477.575-474.366c-9.205-9.153-21.287-13.759-33.375-13.759z"  horiz-adv-x="1024" />

    
    <glyph glyph-name="comment" unicode="&#58909;" d="M512 715.034c-182.83 0-331.034-129.137-331.034-288.413 0-94.262 51.89-177.948 132.149-230.582-0.381-42.737 0-126.521 0-126.521 0 0 80.227 52.668 119.404 77.048 25.473-5.479 52.088-8.376 79.481-8.376 182.83 0 331.034 129.137 331.034 288.43 0 159.277-148.204 288.413-331.034 288.413l0 0 0 0zM353.286 382.527c-24.348 0-44.077 19.713-44.077 44.061s19.73 44.078 44.077 44.078c24.348 0 44.093-19.73 44.093-44.078 0-24.348-19.747-44.061-44.093-44.061l0 0 0 0zM518.72 382.527c-24.348 0-44.093 19.713-44.093 44.061s19.747 44.078 44.093 44.078c24.348 0 44.078-19.73 44.078-44.078 0-24.348-19.747-44.061-44.078-44.061l0 0 0 0zM684.138 382.527c-24.348 0-44.077 19.713-44.077 44.061s19.73 44.078 44.077 44.078c24.348 0 44.093-19.73 44.093-44.078 0-24.348-19.747-44.061-44.093-44.061l0 0 0 0z"  horiz-adv-x="1024" />

    
    <glyph glyph-name="praise" unicode="&#58911;" d="M953.228 357.003c14.338 27.875 23.463 78.605-19.557 116.644-70.425 62.143-250.321 24.103-258.165 22.822l0 0c-13.029-1.245-26.057-5.05-40.431-7.609-1.28 0-1.28-1.28-2.591-1.28l0 0c0 0-2.591-1.245-3.907 0-2.625 1.28-18.245 20.333 22.15 139.503 28.683 81.166 27.402 143.307-2.591 183.87-29.997 40.598-79.543 44.402-93.888 44.402-11.715 0-20.838-3.804-28.683-12.692-19.557-22.822-15.654-74.801-13.029-88.771-10.434-27.906-97.791-248.535-177.306-308.157l-1.313-1.245c-24.775-24.103-37.805-52.009-45.647-72.275-13.029 10.133-29.997 17.743-48.24 17.743l-127.754 0c-39.119 0-71.703-31.712-71.703-69.753l0-329.7c0-38.041 32.585-69.753 71.703-69.753l127.754 0c18.245 0 35.211 6.33 48.24 17.743l53.458-7.573c1.313 0 140.816-17.772 279.002-15.25 65.206-5.05 121.255-3.804 162.999 5.084 59.955 11.413 100.386 35.517 119.943 71.029 16.935 30.431 14.338 60.864 10.434 76.08 67.801 54.533 48.24 120.481 37.805 143.307 22.15 24.069 32.585 50.7 31.271 77.326-1.28 31.712-19.527 57.06-29.959 68.505zM275.985 307.18l0-318.522c0-23.194-19.154-42.719-41.909-42.719l-117.385 0c-22.757 0-41.909 19.527-41.909 42.719l0 318.522c0 23.194 19.154 42.719 41.909 42.719l117.385 0c41.909 0 41.909-39.086 41.909-42.719zM919.057 362.321c-2.524-4.98-2.524-12.421 2.56-16.159 0 0 26.864-23.567 28.144-57.091 1.28-22.317-8.954-43.428-29.388-64.532-3.839-3.737-3.839-9.927-1.313-14.912 1.313-2.459 39.658-68.27-33.227-121.627-3.839-2.491-5.119-8.686-3.839-13.669 0 0 11.514-32.253-6.395-63.29-16.63-27.301-49.852-47.163-100.991-57.091-39.658-8.686-90.79-9.927-154.719-4.98-135.531-2.491-269.779 14.912-271.058 14.912l-38.342 6.194c3.839 8.686 6.395 18.618 6.395 28.547l0 323.978c0 7.44-2.56 16.124-5.119 23.567 3.839 13.669 14.073 49.651 43.459 79.445 89.511 68.27 178.988 305.362 182.825 315.293 0 2.491 0 3.737 0 6.194-2.56 21.107-3.839 58.34 7.673 70.761 2.56 2.491 5.119 3.737 8.954 3.737 11.514 0 48.575-2.491 71.601-33.531 24.304-32.284 24.304-86.885 0-157.644-40.901-121.627-28.144-151.419-14.073-162.592 10.234-8.686 23.026-7.44 30.701-4.98 12.758 2.491 25.548 4.98 37.063 7.472l1.28 0c12.794 2.459 171.312 34.74 228.88-16.159 43.459-38.48 10.202-88.098 8.924-91.835z"  horiz-adv-x="1024" />

    
    <glyph glyph-name="addterms" unicode="&#58912;" d="M367.805-6.245c-58.717 0-113.846 22.65-155.27 63.737-41.632 41.451-64.595 96.372-64.595 154.57 0 58.302 22.859 113.118 64.309 154.388l364.58 362.421c29.306 29.125 68.262 45.197 109.842 45.197 41.475 0 80.484-16.071 109.842-45.197 29.254-29.125 45.43-67.871 45.43-109.191 0-41.268-16.176-80.066-45.43-109.191l-318.837-316.993c-17.164-17.033-40.019-26.395-64.256-26.395-24.316 0-47.17 9.362-64.335 26.395-17.084 17.06-26.577 39.787-26.577 63.945 0 24.211 9.491 46.86 26.577 63.918l227.743 226.341c4.993 4.993 11.675 7.697 18.774 7.697 7.047 0 13.729-2.704 18.722-7.697 10.297-10.272 10.297-26.913 0-37.212l-227.772-226.419c-14.849-14.667-14.849-38.59 0-53.23 7.151-7.229 16.669-11.105 26.863-11.105 10.116 0 19.58 3.875 26.734 11.105l318.866 316.862c39.941 39.733 39.941 104.224 0 143.933-19.244 19.193-44.884 29.776-72.345 29.776-27.331 0-53.049-10.507-72.345-29.776l-364.606-362.473c-31.465-31.204-48.733-72.759-48.733-117.046 0-44.207 17.268-85.788 48.733-116.993 31.569-31.439 73.618-48.733 118.215-48.733 44.414 0 86.231 17.164 117.59 48.391l319.149 317.148c4.993 4.914 11.675 7.646 18.722 7.646 7.022 0 13.652-2.732 18.722-7.646 10.297-10.272 10.297-27.045 0-37.342l-319.099-317.095c-41.399-41.087-96.477-63.737-155.221-63.737z"  horiz-adv-x="1024" />

    
    <glyph glyph-name="mail" unicode="&#58913;" d="M890.335 47.07l-745.563 0c-29.413 0-53.271 24.743-53.271 55.231l0 552.293c0 30.487 23.859 55.231 53.271 55.231l745.563 0c29.413 0 53.271-24.743 53.271-55.231l0-552.293c0-30.487-23.859-55.231-53.271-55.231l0 0 0 0 0 0zM830.655 592.704c-10.383 10.794-27.267 10.794-37.651 0l-92.311-94.679-129.867-134.695 0 0.348c-14.358-14.203-33.549-23.197-54.947-23.197-19.913 0-37.587 8.332-51.569 20.86l0-1.453-174.367 180.804 1.262 0.821-49.138 51.188c-10.383 10.794-27.236 10.794-37.651 0-10.383-10.794-10.383-28.246 0-39.038l168.497-175.69-168.497-174.713c-10.383-10.794-10.383-28.246 0-39.038 10.413-10.794 27.3-10.794 37.651 0l168.369 174.557 44.059-45.887c2.178-2.589 4.449-4.988 6.943-7.289l2.873-2.935 0 0.535c13.728-11.519 30.927-18.65 49.897-18.65 22.155 0 42.132 9.341 56.617 24.394l0-1.83 51.251 52.609 169.253-175.502c10.383-10.794 27.3-10.794 37.651 0 10.413 10.762 10.413 28.246 0 39.038l-169.033 175.284 170.706 175.125c10.383 10.794 10.383 28.246 0 39.038l0 0 0 0 0 0z"  horiz-adv-x="1024" />

    
    <glyph glyph-name="phone" unicode="&#58914;" d="M672.901 822.821l-321.803 0c-59.241 0-107.267-47.661-107.267-106.438l0-664.791c0-58.754 48.027-106.415 107.267-106.415l321.803 0c59.241 0 107.267 47.661 107.267 106.415l0 664.791c0 58.779-48.027 106.438-107.267 106.438zM444.349 749.367l135.302 0c3.121 0 5.631-5.461 5.631-12.164 0-6.704-2.51-12.164-5.631-12.164l-135.302 0c-3.121 0-5.631 5.461-5.631 12.164 0 6.704 2.51 12.164 5.631 12.164zM524.117-30.297c-20.187 0-36.543 16.383-36.543 36.618 0 20.21 16.359 36.618 36.543 36.618 20.16 0 36.543-16.406 36.543-36.618 0-20.236-16.383-36.618-36.543-36.618zM731.094 66.975l-438.188 0 0 609.67 438.188 0 0-609.67z"  horiz-adv-x="1024" />

    
    <glyph glyph-name="more" unicode="&#58915;" d="M741.517241 331.034483C702.516966 331.034483 670.896552 362.654897 670.896552 401.655172 670.896552 440.655448 702.516966 472.275862 741.517241 472.275862 780.517517 472.275862 812.137931 440.655448 812.137931 401.655172 812.137931 362.654897 780.517517 331.034483 741.517241 331.034483ZM529.655172 331.034483C490.654897 331.034483 459.034483 362.654897 459.034483 401.655172 459.034483 440.655448 490.654897 472.275862 529.655172 472.275862 568.655448 472.275862 600.275862 440.655448 600.275862 401.655172 600.275862 362.654897 568.655448 331.034483 529.655172 331.034483ZM300.137931 331.034483C261.137655 331.034483 229.517241 362.654897 229.517241 401.655172 229.517241 440.655448 261.137655 472.275862 300.137931 472.275862 339.138207 472.275862 370.758621 440.655448 370.758621 401.655172 370.758621 362.654897 339.138207 331.034483 300.137931 331.034483Z"  horiz-adv-x="1024" />

    
    <glyph glyph-name="share" unicode="&#58916;" d="M696.197 469.913c-29.302 0-55.329 13.107-73.332 33.465l-223.839-100.149c1.412-6.196 2.335-12.598 2.335-19.228 0-13.107-3.164-25.386-8.418-36.515l170.13-116.42c12.806 10.81 29.134 17.589 47.213 17.589 40.621 0 73.558-32.938 73.558-73.578 0-40.621-32.938-73.558-73.558-73.558-40.64 0-73.558 32.938-73.558 73.558 0 9.19 1.884 17.89 4.953 25.988l-171.41 117.286c-14.915-12.467-33.86-20.263-54.839-20.263-47.438 0-85.913 38.455-85.913 85.913 0 47.457 38.475 85.913 85.913 85.913 23.39 0 44.538-9.397 60.037-24.557l225.157 100.752c-1.638 7.119-2.711 14.463-2.711 22.091 0 54.274 44.011 98.285 98.285 98.285 54.274 0 98.285-44.011 98.285-98.285 0-54.274-44.011-98.285-98.285-98.285z"  horiz-adv-x="1024" />

    
    <glyph glyph-name="address" unicode="&#58917;" d="M512 833.406c-180.501 0-326.839-136.293-326.839-304.453 0-168.118 218.33-391.021 326.839-594.357 113.124 203.333 326.839 426.241 326.839 594.357 0 168.162-146.343 304.453-326.839 304.453l0 0zM512 355.321c-101.525 0-183.847 77.055-183.847 172.122 0 95.028 82.32 172.084 183.847 172.084 101.525 0 183.847-77.055 183.847-172.084 0-95.071-82.32-172.122-183.847-172.122l0 0zM512 603.923c-45.146 0-81.708-34.281-81.708-76.477 0-42.282 36.566-76.525 81.708-76.525 45.101 0 81.708 34.237 81.708 76.525 0 42.204-36.606 76.477-81.708 76.477l0 0z"  horiz-adv-x="1024" />

    
    <glyph glyph-name="guanbi" unicode="&#58924;" d="M512 872.727c269.475 0 488.727-219.252 488.727-488.727s-219.252-488.727-488.727-488.727-488.727 219.252-488.727 488.727 219.252 488.727 488.727 488.727M512 896c-282.764 0-512-229.236-512-512s229.236-512 512-512 512 229.236 512 512-229.236 512-512 512v0zM709.469 174.895c-2.979 0-5.958 1.14-8.239 3.398l-394.938 394.961c-2.281 2.281-3.398 5.26-3.398 8.239s1.14 5.958 3.398 8.239c4.538 4.538 11.916 4.538 16.454 0l394.961-394.961c2.281-2.281 3.398-5.26 3.398-8.239s-1.14-5.958-3.398-8.239-5.26-3.398-8.239-3.398zM314.531 174.895c-2.979 0-5.958 1.14-8.239 3.398s-3.398 5.26-3.398 8.239 1.14 5.958 3.398 8.239l394.961 394.961c4.538 4.538 11.916 4.538 16.454 0 2.281-2.281 3.398-5.26 3.398-8.239s-1.14-5.958-3.398-8.239l-394.961-394.961c-2.257-2.281-5.236-3.398-8.215-3.398z"  horiz-adv-x="1024" />

    
    <glyph glyph-name="vehicle-1" unicode="&#58880;" d="M928.039 364.557l-0.582 38.945c0 0-24.937 48.125-76.557 47.708-87.071-0.803-203.957-1.722-203.957-1.722l-242.982 319.707-68.402 2.939 88.54-327.085-152.836 1.414-138.219 118.636-33.786 15.588 59.165-202.512-62.688-200.766 34.838 15.062 132.505 114.059c0 0 439.006 3.605 611.203 5.021 42.022 0.361 53.756 53.007 53.756 53.007l0 0 0 0zM423.653 292.353l-91.73-296.961 59.413 3.58 231.804 284.923-199.489 8.461z"  horiz-adv-x="1024" />

    
    <glyph glyph-name="hotel" unicode="&#58895;" d="M839.087-0.63l-221.932 0c-4.26 0-8.345 0.738-12.308 1.774-3.964-1.036-8.045-1.774-12.338-1.774l-394.483 0c-27.249 0-49.321 22.368-49.321 49.942l0 698.965c0 27.603 22.074 49.942 49.321 49.942l394.483 0c27.249 0 49.321-22.339 49.321-49.942l0-174.74 197.255 0c27.22 0 49.294-22.339 49.294-49.942l0-474.279c0-27.575-22.074-49.942-49.294-49.942l0 0zM345.929 648.418l-98.615 0 0-99.855 98.615 0 0 99.855zM345.929 448.736l-98.615 0 0-99.855 98.615 0 0 99.855zM345.929 249.022l-98.615 0 0-99.855 98.615 0 0 99.855zM518.537 648.418l-98.615 0 0-99.855 98.615 0 0 99.855zM518.537 448.736l-98.615 0 0-99.855 98.615 0 0 99.855zM518.537 249.022l-98.615 0 0-99.855 98.615 0 0 99.855zM789.763 448.736l-98.643 0 0-99.855 98.643 0 0 99.855zM789.763 249.022l-98.643 0 0-99.855 98.643 0 0 99.855z"  horiz-adv-x="1024" />

    
    <glyph glyph-name="meal" unicode="&#58918;" d="M149.234 215.975l725.443 0c14.113 0 26.245 5.119 36.365 15.385 10.089 10.236 15.179 22.665 15.179 37.25 0.029 14.586-5.029 26.983-15.179 37.25-10.177 10.236-22.277 15.385-36.365 15.385l-4.587 0c-9.825 70.802-38.051 133.348-84.707 187.671-46.659 54.323-103.732 91.423-171.25 111.278l0 0.915c1.243 6.242 1.862 10.889 1.862 13.996 0 29.171-10.119 53.847-30.385 74.026-20.238 20.177-44.797 30.267-73.642 30.297-28.849 0-53.259-10.089-73.199-30.297-19.911-20.208-29.885-44.886-29.911-74.026 0-3.108 0.295-8.078 0.915-14.912-67.518-19.854-124.623-56.956-171.25-111.278-46.659-54.323-74.883-116.869-84.707-187.671l-4.587 0c-6.743 0-13.374-1.418-19.793-4.201-6.45-2.811-11.981-6.539-16.598-11.184-4.618-4.644-8.285-10.236-11.035-16.774-2.752-6.539-4.144-13.521-4.171-20.947 0-14.289 5.089-26.569 15.206-36.778 10.15-10.236 22.25-15.357 36.365-15.385l0.029 0zM511.942 687.236c14.113 0 26.245-5.149 36.365-15.385 10.089-10.268 15.179-22.516 15.179-36.778l0-2.811-0.889-0.915c-8.611 1.243-17.219 2.189-25.801 2.811s-16.863 0.915-24.853 0.915c-7.989 0-16.271-0.295-24.853-0.915-8.611-0.621-17.189-1.569-25.801-2.811l-0.915 0.915 0 2.811c0 14.289 5.089 26.54 15.206 36.778 10.15 10.236 22.25 15.357 36.365 15.385l0 0zM293.765 406.901c16.569 27.308 37.607 50.921 63.078 70.772 25.474 19.883 53.847 34.173 85.15 42.87 1.243 0.621 2.484 0.915 3.698 0.915l0 0c1.837 0.621 3.374 0.915 4.587 0.915 7.367 0 13.67-2.634 18.876-7.93 5.237-5.267 7.843-11.658 7.843-19.084 0-4.35-0.915-8.403-2.782-12.132-1.837-3.698-4.438-6.807-7.811-9.319-3.401-2.484-6.922-4.054-10.591-4.644-16.569-4.971-32.073-11.627-46.48-20.032-14.407-8.372-27.603-18.315-39.589-29.794-11.981-11.481-22.277-24.054-30.859-37.723-1.243-3.108-3.076-5.886-5.533-8.372-2.455-2.484-5.206-4.35-8.285-5.62-3.045-1.243-6.45-1.862-10.119-1.862-7.367 0-13.521 2.484-18.431 7.456-4.911 4.944-7.367 11.155-7.367 18.608 0 5.591 1.537 10.562 4.618 14.912l0 0.058zM874.679 163.813l-725.443 0c-14.113 0-26.245-5.119-36.365-15.385-10.119-10.236-15.179-22.665-15.206-37.25 0-14.586 5.059-27.013 15.206-37.25 10.177-10.268 22.277-15.385 36.365-15.385l725.443 0c14.113 0 26.245 5.119 36.365 15.385 10.089 10.236 15.179 22.665 15.179 37.25 0.029 14.586-5.029 27.013-15.179 37.25-10.15 10.268-22.277 15.385-36.365 15.385l0 0z"  horiz-adv-x="1024" />

    
    <glyph glyph-name="timeon" unicode="&#58919;" d="M512 798.219c-228.768 0-414.219-185.453-414.219-414.219 0-228.768 185.453-414.219 414.219-414.219 228.768 0 414.219 185.453 414.219 414.219 0 228.768-185.453 414.219-414.219 414.219l0 0 0 0zM652.895 226.656l-14.644-14.617c-8.078-8.108-21.185-8.108-29.291 0l-134.297 134.297c-4.644 4.644-4.081 13.965-4.081 23.169l0 263.029c0 11.42 9.261 20.713 20.713 20.713l20.713 0c11.452 0 20.713-9.292 20.713-20.713l0-256.373 120.182-120.182c8.078-8.108 8.078-21.213 0-29.321l0 0 0 0z"  horiz-adv-x="1024" />

    
    <glyph glyph-name="shopping" unicode="&#58921;" d="M763.616 556.978c-14.721 0-28.368 2.058-40.99 5.186l-69.338-38.483 0 79.022c-27.319 27.04-44.14 63.444-44.14 103.985-1.051 82.151 68.308 148.702 154.466 148.702 86.157 0 155.495-66.553 155.495-149.73 0-83.179-69.338-148.681-155.495-148.681zM680.608 735.807c-14.721 0-27.319-12.47-27.319-27.04 0-14.548 11.549-27.019 27.319-27.019 14.698 0 27.319 11.42 27.319 27.019 0 14.571-11.571 27.04-27.319 27.04zM763.616 735.807c-14.721 0-27.319-12.47-27.319-27.04 0-14.548 11.549-27.019 27.319-27.019 15.749 0 27.319 11.42 27.319 27.019 0 14.571-11.571 27.04-27.319 27.04zM846.602 735.807c-14.698 0-27.299-12.47-27.299-27.04 0-14.548 11.549-27.019 27.299-27.019 15.77 0 27.319 11.42 27.319 27.019 0 14.571-11.549 27.04-27.319 27.04zM813.668 471.314c11.207-15.876 13.97-36.276 7.521-54.595l0 0-85.557-241.374c-11.935-33.598-43.796-56.16-79.365-56.16l-334.066 0c-40.09 0-74.801 28.649-82.601 68.073l-56.61 287.484-18.749 86.242-62.717 0c-9.984 0-18.062 8.078-18.062 18.062 0 10.029 8.078 18.107 18.062 18.107l77.265 0c0.558 0 1.051-0.3 1.585-0.342 1.264-0.107 2.443-0.342 3.642-0.729 1.092-0.342 2.079-0.686 3.065-1.243 1.051-0.534 1.929-1.179 2.871-1.907 0.922-0.729 1.713-1.478 2.463-2.356 0.707-0.857 1.308-1.799 1.842-2.785 0.599-1.072 1.114-2.164 1.5-3.343 0.15-0.558 0.534-0.963 0.663-1.542l18.749-86.286 549.749 0c19.37 0 37.604-9.45 48.747-25.306zM309.109 79.91c40.133 0 72.766-32.698 72.766-72.915 0-40.239-32.634-72.959-72.766-72.959-40.133 0-72.743 32.718-72.743 72.959 0 40.219 32.611 72.915 72.743 72.915zM630.661 79.91c40.133 0 72.743-32.698 72.743-72.915 0-40.239-32.611-72.959-72.743-72.959-40.11 0-72.723 32.718-72.723 72.959 0 40.219 32.634 72.915 72.723 72.915z"  horiz-adv-x="1024" />

    
    <glyph glyph-name="bus" unicode="&#58922;" d="M884.877241 205.170759 855.693241 205.170759C858.58869 213.592276 860.248276 222.596414 860.248276 231.988966 860.248276 277.53931 823.313655 314.473931 777.780966 314.473931 732.230621 314.473931 695.296 277.53931 695.296 231.988966 695.296 222.596414 696.937931 213.592276 699.851034 205.170759L307.252966 205.170759C310.148414 213.592276 311.790345 222.596414 311.790345 231.988966 311.790345 277.53931 274.873379 314.473931 229.323034 314.473931 183.790345 314.473931 146.855724 277.53931 146.855724 231.988966 146.855724 222.596414 148.51531 213.592276 151.410759 205.170759L124.115862 205.170759C106.619586 205.170759 92.142345 218.712276 90.994759 236.173241 83.773793 346.800552 90.394483 449.800828 117.336276 540.813241 126.993655 573.457655 157.025103 595.862069 191.081931 595.862069L868.281379 595.862069C895.770483 595.862069 918.068966 573.563586 918.068966 546.074483L918.068966 238.380138C918.068966 220.036414 903.20331 205.170759 884.877241 205.170759ZM287.426207 561.134345 191.081931 561.134345C172.526345 561.134345 155.895172 548.722759 150.633931 530.961655 137.021793 484.89931 128.564966 434.423172 125.033931 378.827034L238.768552 378.827034 287.426207 415.77931 287.426207 561.134345ZM478.278621 561.134345 320.617931 561.134345 320.617931 422.223448 478.278621 422.223448 478.278621 561.134345ZM685.726897 561.134345 511.470345 561.134345 511.470345 422.223448 685.726897 422.223448 685.726897 561.134345ZM883.341241 547.84C883.341241 555.166897 877.373793 561.134345 870.046897 561.134345L718.918621 561.134345 718.918621 422.223448 883.341241 422.223448 883.341241 547.84ZM229.199448 291.027862C244.77131 291.027862 260.237241 284.619034 271.236414 273.619862 282.235586 262.62069 288.644414 247.154759 288.644414 231.582897 288.644414 216.02869 282.235586 200.545103 271.236414 189.545931 260.237241 178.546759 244.77131 172.137931 229.199448 172.137931 213.645241 172.137931 198.17931 178.546759 187.162483 189.545931 176.16331 200.545103 169.754483 216.02869 169.754483 231.582897 169.754483 247.154759 176.16331 262.62069 187.162483 273.619862 198.17931 284.619034 213.645241 291.027862 229.199448 291.027862ZM778.24 291.027862C793.811862 291.027862 809.277793 284.63669 820.276966 273.619862 831.276138 262.62069 837.684966 247.154759 837.684966 231.582897 837.684966 216.02869 831.276138 200.545103 820.276966 189.545931 809.277793 178.546759 793.811862 172.137931 778.24 172.137931 762.685793 172.137931 747.202207 178.546759 736.203034 189.545931 725.203862 200.545103 718.795034 216.02869 718.795034 231.582897 718.795034 247.154759 725.203862 262.62069 736.203034 273.619862 747.202207 284.63669 762.685793 291.027862 778.24 291.027862Z"  horiz-adv-x="1024" />

    
    </font>
</defs>
</svg>
